<?xml version="1.0" encoding="UTF-8"?>
<svg width="24px" height="24px" viewBox="0 0 24 24" version="1.1" xmlns="http://www.w3.org/2000/svg" xmlns:xlink="http://www.w3.org/1999/xlink">
    <title>linkedin24</title>
    <g id="linkedin24" stroke="none" stroke-width="1" fill="none" fill-rule="evenodd">
        <path d="M6.58007812,8.95410156 L6.58007812,21.8740234 L2.41992188,21.8740234 L2.41992188,8.95410156 L6.58007812,8.95410156 Z M17,8.54394531 C18.4974033,8.54394531 19.7050735,9.0566355 20.6230469,10.0820312 C21.5410202,11.107427 22,12.5380768 22,14.3740234 L22,21.8740234 L17.8300781,21.8740234 L17.8300781,14.7939453 C17.8300781,13.804357 17.6201193,13.0703149 17.2001953,12.5917969 C16.7802713,12.1132789 16.2350294,11.8740234 15.5644531,11.8740234 C14.9003873,11.8740234 14.348635,12.0904926 13.9091797,12.5234375 C13.4697244,12.9563824 13.25,13.5732382 13.25,14.3740234 L13.25,21.8740234 L9.08007812,21.8740234 L9.08007812,11.8740234 L9.01171875,8.95410156 L13.1132812,8.95410156 L13.25,10.7412109 C13.6927105,10.0706347 14.2298146,9.53678584 14.8613281,9.13964844 C15.4928417,8.74251104 16.2057252,8.54394531 17,8.54394531 Z M4.51953125,2.29394531 C5.25521201,2.29394531 5.84928159,2.5104145 6.30175781,2.94335938 C6.75423403,3.37630425 6.9869791,3.92154619 7,4.57910156 C7,5.23665693 6.76888252,5.78352646 6.30664062,6.21972656 C5.84439873,6.65592666 5.23568086,6.87402344 4.48046875,6.87402344 L4.45117188,6.87402344 C3.72851201,6.87402344 3.1393252,6.65429907 2.68359375,6.21484375 C2.2278623,5.77538843 2,5.23014648 2,4.57910156 C2,3.92154619 2.23274507,3.37630425 2.69824219,2.94335938 C3.16373931,2.5104145 3.77082959,2.29394531 4.51953125,2.29394531 Z" id="Combined-Shape" fill="#4A4A4A"></path>
    </g>
</svg>