<svg xmlns="http://www.w3.org/2000/svg" width="933.333" height="933.333" version="1.0" viewBox="0 0 700 700"><metadata>Created by potrace 1.14, written by Peter Selinger 2001-2017</metadata><path d="M397.1 44.6C375.9 50.3 360.8 70 360.8 92c0 3.8.7 9.3 1.6 12.3 1.9 6.5 8.3 16.5 13.4 20.8 2.5 2.1 3 2.9 1.7 2.6-8.8-2.4-11.8-2.9-19.8-3l-9.1-.2-5.8 15c-3.2 8.2-5.8 15.5-5.8 16.1 0 .7.8 1.5 1.8 1.9 18.8 7.3 155.1 59.4 156.2 59.7 1 .2 3.4-5 8.7-19 4.1-10.6 7.1-19.7 6.9-20.1-.3-.4-13.3-5.7-29-11.7-15.6-6-28.4-11-28.2-11.1.1-.1 3.2-.7 7-1.3 15.6-2.5 25.8-11.8 32.2-29.4 7.1-19.7 2.2-38.2-14.5-54.6-12.7-12.6-30-21.4-49.3-25.4-9.5-2-24.5-2-31.7 0zM426 88.5c24.2 8.7 36 19.1 36 31.6 0 4.6-2.9 12.3-6.1 16.2-5.3 6.4-9.9 8.2-20.9 8.1-8 0-11-.5-19-3.3-16.7-5.7-25.7-12.6-29.5-22.4-4.6-12.1 2.3-27.9 14.1-32.3 5.6-2.1 16.2-1.2 25.4 2.1zM199.5 166.4c-36.9 10-67.5 18.4-68.1 18.7-1.4.5 7.4 33.9 8.9 33.9.5 0 10.8-2.7 22.9-6 20.5-5.6 24.8-6.6 24.8-5.6s35.2 130.1 35.5 130.5c.8.7 40.8-10.4 41.2-11.5.2-.6-7.5-30.3-17.2-65.9-9.7-35.6-17.3-65-17-65.3.3-.4 11-3.4 23.6-6.8 12.7-3.4 23.2-6.4 23.5-6.7.4-.3-5.1-21.5-8.2-32-.3-.9-1.1-1.7-1.7-1.6-.7 0-31.3 8.3-68.2 18.3z"/><path d="M390.3 204.9c-10.1 1.5-18.5 3-18.8 3.2-.3.3-3.6 20.8-7.5 45.5s-7.1 45.6-7.3 46.4c-.2.8-9.9-17.6-21.6-41-11.7-23.4-21.4-42.6-21.5-42.7-.5-.6-42.6 6.2-42.6 6.9 0 .5 14.2 27.1 31.6 59.2l31.7 58.3 5-.8c2.8-.5 5.3-.7 5.5-.4.9.8-.9 7.1-2.8 10.3-1.4 2.2-4 4.3-7.8 6-5.3 2.5-6.6 2.7-19.4 2.7-11.8 0-13.7.2-13.3 1.5.2.8 1.1 6.7 2 13 .9 6.3 1.9 11.8 2.1 12.1.2.4 3.3 1.5 6.9 2.4 11.8 3.2 33.9.2 45.7-6.2 10.7-5.8 20.2-19.6 24.2-34.8 1.3-5.1 27.6-142.2 27.6-143.9 0-.3-.3-.5-.7-.5-.5.1-9 1.3-19 2.8zM484 237.7c-21.5 3.3-38.9 11.3-50.3 22.9-17.3 17.5-20.4 45.9-8.2 76 5.9 14.7 18.2 30.3 25.2 32 2 .5 21.5-3.9 23.1-5.2.2-.1-1.4-2.6-3.6-5.6-8.6-11.5-15.7-30-16.9-44.4-.8-10 1.3-15.9 7.8-21.8 4.2-3.8 11.4-7.6 12.3-6.4.1.1 5 16.9 10.8 37.3l10.5 37 8.9-.1c6.8-.1 10.7-.7 16.8-2.8 25.5-8.7 39-28.1 37.3-54-2.1-33.1-23.2-58.9-52.2-64.1-7.6-1.4-16.1-1.7-21.5-.8zm34.1 42.3c7.9 4.1 12.5 12.4 11.7 21.2-.6 5.9-2.8 9.2-9.2 13.5-4.9 3.3-15.1 7.1-16.2 6-.8-.8-12.4-41.1-11.9-41.5.2-.2 2.8-.8 5.7-1.2 7-1.1 15.4-.2 19.9 2zM93.1 412.7c-9.4 47.2-17.2 86.1-17.1 86.4 0 .3 10.6 5.3 23.6 10.9 20.4 8.9 23.8 10.2 24.8 8.8 13.9-18.8 77.1-102.6 77.3-102.5.1.2-5.4 28.6-12.2 63.2-6.9 34.7-12.4 63.4-12.2 63.9.4 1.3 45.1 20.6 45.8 19.8.4-.4 24.2-32.1 52.9-70.5 30.2-40.3 51.9-70.1 51.4-70.6s-8.8-4.3-18.4-8.5c-16.9-7.5-17.5-7.6-19-5.8-.8 1.1-17 24-36 50.9-19 27-34.6 48.7-34.8 48.2-.2-.5 4.7-27.9 10.8-60.9 6.2-33 11-60.6 10.7-61.3-.3-.9-29.4-14.4-39.8-18.5-.4-.2-17.8 22.2-38.5 49.8-20.8 27.6-38 49.7-38.1 49.3-.3-.7 24.8-114.4 26.3-119.4.3-1.2-4-3.5-19.3-10.2-10.9-4.8-20.1-8.7-20.4-8.7-.3 0-8.3 38.6-17.8 85.7zM398.1 389c-12.3 9.7-23.1 30.7-26.1 50.6-3.2 21.2 5.1 38.8 22.5 47.3 8.4 4.2 18.6 6.4 25.5 5.7 13-1.5 21.8-9.2 34.3-30.3 8.8-15 12.5-18.8 17.1-17.9 10.7 2.2 10.9 15.1.6 35.7-4.3 8.5-14.2 21.5-19 24.9-1.7 1.2-2.8 2.6-2.3 3 1 .9 22.5 9 23.8 9 2.2 0 12.4-9.1 16.9-15.1 6-8 12.5-20.8 16.2-31.9 2.5-7.5 2.8-10 2.8-21.5.1-12.6 0-13.2-3.1-19.7-5.4-11.5-15.5-19.4-30.2-23.8-19.6-6-32.6 1.9-48.9 29.7-4.6 7.8-9.5 15.4-10.9 16.8-3.3 3.2-8.2 3.3-11.8.2-8.2-7 0-31.2 17.6-51.8l4.8-5.6-11.2-4.3c-6.1-2.4-11.7-4.5-12.3-4.7-.6-.2-3.4 1.5-6.3 3.7z"/><path d="M529 473.8c-2.5 2-5.8 4.7-7.4 5.9l-2.8 2.3 6.4 6.2c7.5 7.2 10.8 13 10.8 18.7 0 5.4-1.2 8.3-5.2 12.3-2.5 2.4-33.8 27.5-47.4 37.9-.7.6-5-4.2-12.3-13.6-6.2-8-11.4-14.5-11.5-14.5-.2 0-5.1 3.8-11 8.4l-10.6 8.3 11 14.3c6.1 7.8 11 14.5 11 14.9 0 .4-5.8 5.4-13 11.1-7.1 5.7-13 10.5-13 10.7 0 .2 3.3 4.7 7.2 9.9 4.9 6.3 7.8 9.3 8.8 9 .8-.2 4.3-1.6 7.6-3 9.7-4.1 18.1-5.9 23.7-5.2 5.9.8 13.2 4.3 16.6 8 1.4 1.4 2.8 2.6 3.3 2.6 1.8 0 16.7-12.6 16.3-13.8-.3-.6-2.3-3.7-4.6-6.8-3.6-4.7-4-5.7-2.8-6.8.8-.7 12.9-10.3 27-21.4 14.1-11.1 27.7-22.4 30.2-25.1 15.3-17.1 13-38.9-6.1-59.2-7.9-8.4-16-13.3-23.7-14.3-3.5-.5-4.5-.1-8.5 3.2zM327.1 487.5c-8.3 2.4-16.6 7.2-24.2 14.3-36 33.3-32.4 80.5 8.3 109.5 31.9 22.8 62.5 19 88.9-10.9 2.8-3.3 6.4-7.8 8-10.1 4.3-6.2 10.6-19.9 12.4-26.8 1.6-6.2 2-15.3.7-17.1-1.1-1.6-17.2-14.7-17.6-14.3-.2.2-1.1 2.9-2.1 5.9-5.6 17.3-20.8 38-32.6 44.5-6.7 3.6-14.1 3.8-21.6.5-2.9-1.2-5.7-2.7-6.2-3.4-.6-.8 6.7-10.7 23.5-31.9l24.4-30.9-3-4.2c-6.8-10-18.2-18.9-29.7-23.2-8.6-3.3-21.4-4.1-29.2-1.9zm13.2 36c2.9 1.5 6.7 3.9 8.6 5.4l3.5 2.9-12.9 16.3c-7 9-13.2 16.8-13.7 17.4-1.3 1.5-9.6-7.4-12.8-13.9-3.7-7.2-3.8-12.3-.6-19.1 5.6-12 15.4-15.1 27.9-9z"/></svg>