<?xml version="1.0" encoding="utf-8"?>
<!-- Generator: $$$/GeneralStr/196=Adobe Illustrator 27.6.0, SVG Export Plug-In . SVG Version: 6.00 Build 0)  -->
<svg version="1.1" id="Layer_1" xmlns="http://www.w3.org/2000/svg" xmlns:xlink="http://www.w3.org/1999/xlink" x="0px" y="0px"
	 width="1200px" height="1354.8px" viewBox="0 0 1200 1354.8" style="enable-background:new 0 0 1200 1354.8;" xml:space="preserve"
	>
<style type="text/css">
	.st0{stroke:#F16484;stroke-width:1.2;}
	.st1{font-family:'MyriadPro-Light';}
	.st2{font-size:87.8137px;}
	.st3{font-family:'MyriadPro-LightIt';}
	.st4{font-family:'MyriadPro-Regular';}
	.st5{font-family:'MyriadPro-It';}
	.st6{font-family:'MyriadPro-Semibold';}
	.st7{font-family:'MyriadPro-SemiboldIt';}
	.st8{font-family:'MyriadPro-Bold';}
	.st9{font-size:29.2989px;}
</style>
<line class="st0" x1="161.8" y1="152.4" x2="1182.4" y2="152.4"/>
<line class="st0" x1="161.8" y1="347.9" x2="1182.4" y2="347.9"/>
<line class="st0" x1="195" y1="543.5" x2="1182.4" y2="543.5"/>
<line class="st0" x1="161.8" y1="739" x2="1182.4" y2="739"/>
<line class="st0" x1="161.8" y1="935.1" x2="1182.4" y2="935.1"/>
<line class="st0" x1="204.7" y1="1130.6" x2="1182.4" y2="1130.6"/>
<line class="st0" x1="158" y1="1326.2" x2="1182.4" y2="1326.2"/>
<text transform="matrix(1 0 0 1 20 94.7672)" class="st1 st2">Some SVG sample text goes here…</text>
<text transform="matrix(1 0 0 1 20 287.2402)" class="st3 st2">Some sample text goes here…</text>
<text transform="matrix(1 0 0 1 20 481.5502)" class="st4 st2">Some sample text goes here…</text>
<text transform="matrix(1 0 0 1 20 684.6307)" class="st5 st2">Some sample text goes here…</text>
<text transform="matrix(1 0 0 1 20 879.559)" class="st6 st2">Some sample text goes here…</text>
<text transform="matrix(1 0 0 1 20 1079.1895)" class="st7 st2">Some sample text goes here…</text>
<text transform="matrix(1 0 0 1 20 1269.1848)" class="st8 st2">Some sample text goes here…</text>
<text transform="matrix(1 0 0 1 13.4551 162.0492)" class="st4 st9">Light</text>
<text transform="matrix(1 0 0 1 13.4551 353.2302)" class="st4 st9">Light Italic</text>
<text transform="matrix(1 0 0 1 13.4551 549.4689)" class="st4 st9">Regular</text>
<text transform="matrix(1 0 0 1 13.4551 744.6961)" class="st4 st9">Italic</text>
<text transform="matrix(1 0 0 1 13.4551 943.9694)" class="st4 st9">Semibold</text>
<text transform="matrix(1 0 0 1 13.4551 1138.1504)" class="st4 st9">Semibold Italic</text>
<text transform="matrix(1 0 0 1 13.4551 1334.3892)" class="st4 st9">Bold</text>
</svg>
