<?xml version="1.0" encoding="utf-8"?>
<!-- Generator: $$$/GeneralStr/196=Adobe Illustrator 27.6.0, SVG Export Plug-In . SVG Version: 6.00 Build 0)  -->
<svg version="1.1" id="Layer_1" xmlns="http://www.w3.org/2000/svg" xmlns:xlink="http://www.w3.org/1999/xlink" x="0px" y="0px"
	 width="1200px" height="2199.2px" viewBox="0 0 1200 2199.2" style="enable-background:new 0 0 1200 2199.2;" xml:space="preserve"
	>
<g>
	<g>
		<line x1="161.8" y1="152.4" x2="1182.4" y2="152.4"/>
		<rect x="161.8" y="151.8" width="1020.6" height="1.2"/>
	</g>
	<g>
		<path d="M25.3,88.2c3.3,2.3,8,4,13,4c8.8,0,14.2-5,14.2-12.3c0-6.7-3.4-10.5-11.9-13.9c-9.6-3.3-15.3-8.3-15.3-16.3
			c0-8.7,7.2-15,17.2-15c5.5,0,9.7,1.5,11.8,2.8l-1.6,3.5c-1.6-1.1-5.4-2.8-10.5-2.8c-9.6,0-12.8,6.1-12.8,10.8
			c0,6.6,3.8,9.9,12.3,13.3c9.7,4,14.9,8.3,14.9,17.2c0,8.6-6.1,16.2-18.8,16.2c-5.1,0-11.1-1.7-14.1-4L25.3,88.2z"/>
		<path d="M104.3,73.3c0,15.8-10.8,22.5-20.2,22.5c-10.9,0-19.3-8.5-19.3-21.7c0-14.5,9.5-22.4,19.9-22.4
			C96.4,51.7,104.3,60.3,104.3,73.3z M69,73.8c0,10.5,6.8,18.4,15.4,18.4c8.8,0,15.7-7.9,15.7-18.7c0-7.7-4.4-18.4-15.5-18.4
			C73.9,55.1,69,64.7,69,73.8z"/>
		<path d="M115,62.7c0-3.9-0.2-6.8-0.4-10.1h3.9l0.4,7.5h0.2c2.6-4.8,6.7-8.4,13.6-8.4c5.9,0,10.4,3.9,12.1,9.2h0.2
			c1.2-2.5,2.7-4.4,4.3-5.7c2.7-2.3,5.6-3.5,10.1-3.5c4.1,0,13.7,2.3,13.7,18.3v24.9h-4.1V70.4c0-9.5-3.7-15.1-11-15.1
			c-5.3,0-9.5,3.9-11.1,8.3c-0.4,1.2-0.8,2.6-0.8,4.1v27H142V68.4c0-7.6-3.7-13.2-10.4-13.2c-5.7,0-10.1,4.6-11.7,9.5
			c-0.4,1.1-0.7,2.6-0.7,4v26H115V62.7z"/>
		<path d="M187.5,73.3c0,13.5,7.4,18.8,16.1,18.8c6.1,0,9.3-1.2,11.7-2.4l1.1,3.3c-1.6,0.9-5.9,2.6-13.3,2.6
			c-12.1,0-19.7-8.8-19.7-21.2c0-14.1,8.1-22.8,19-22.8c13.8,0,16.4,13,16.4,19.1c0,1.1,0,1.8-0.2,2.5H187.5z M214.4,69.9
			c0.1-5.9-2.4-14.8-12.6-14.8c-9.3,0-13.3,8.3-14.1,14.8H214.4z"/>
		<path d="M246.9,88.2c3.3,2.3,8,4,13,4c8.8,0,14.2-5,14.2-12.3c0-6.7-3.4-10.5-11.9-13.9c-9.6-3.3-15.3-8.3-15.3-16.3
			c0-8.7,7.2-15,17.2-15c5.5,0,9.7,1.5,11.8,2.8l-1.6,3.5c-1.6-1.1-5.4-2.8-10.5-2.8c-9.6,0-12.8,6.1-12.8,10.8
			c0,6.6,3.8,9.9,12.3,13.3c9.7,4,14.9,8.3,14.9,17.2c0,8.6-6.1,16.2-18.8,16.2c-5.1,0-11.1-1.7-14.1-4L246.9,88.2z"/>
		<path d="M302.1,94.8l-19.7-59.2h4.4l10.5,31.7c2.9,8.6,5.3,16.1,6.9,22.7h0.3c1.8-6.7,4.5-14.3,7.6-22.7l11.5-31.7h4.5l-22,59.2
			H302.1z"/>
		<path d="M377.1,92.1c-3,1.2-9.1,3.2-17.2,3.2c-7.8,0-15-2-21-7.8c-4.8-4.7-8.1-12.6-8.1-22.2c0-16.4,10.7-30.4,30.8-30.4
			c6.4,0,11.5,1.6,13.8,2.6l-1.3,3.5c-3.1-1.5-7-2.5-12.6-2.5c-16.3,0-26.3,10.5-26.3,26.6c0,16.7,9.8,26.6,25.5,26.6
			c6.1,0,10.2-0.9,12.4-2V68.9h-13.8v-3.4h17.9V92.1z"/>
		<path d="M406.9,89.2c2.3,1.4,5.7,2.9,9.5,2.9c6.7,0,9.8-3.6,9.8-8c0-4.7-2.8-7.1-8.9-9.6c-6.9-2.6-10.7-6.4-10.7-11.5
			c0-6.1,4.7-11.4,13-11.4c3.9,0,7.1,1.1,9.3,2.6l-1.7,3.4c-1.4-1.1-4.1-2.5-8.3-2.5c-5.4,0-8.2,3.4-8.2,7.3c0,4.4,3,6.3,8.7,8.7
			c6.8,2.6,10.9,6.1,10.9,12.5c0,7.2-5.6,12-14.2,12c-4.1,0-7.9-1.1-10.7-2.9L406.9,89.2z"/>
		<path d="M464.4,94.8l-0.6-6.1h-0.3c-2,3.2-6.7,7-13.4,7c-8.4,0-12.4-6-12.4-11.6c0-9.7,8.6-15.6,25.7-15.5v-1.1
			c0-4.2-0.8-12.6-10.8-12.5c-3.7,0-7.6,1-10.5,3.2l-1.3-3.1c3.8-2.5,8.5-3.6,12.3-3.6c12.2,0,14.5,9.1,14.5,16.7v16.4
			c0,3.3,0.2,6.8,0.6,10H464.4z M463.5,72.2c-9.2-0.3-21.3,1.1-21.3,11.2c0,6.1,4,8.8,8.4,8.8c7,0,11-4.3,12.5-8.4
			c0.3-0.9,0.4-1.8,0.4-2.5V72.2z"/>
		<path d="M481.3,62.7c0-3.9-0.2-6.8-0.4-10.1h3.9l0.4,7.5h0.2c2.6-4.8,6.7-8.4,13.6-8.4c5.9,0,10.4,3.9,12.1,9.2h0.2
			c1.2-2.5,2.7-4.4,4.3-5.7c2.7-2.3,5.6-3.5,10.1-3.5c4.1,0,13.7,2.3,13.7,18.3v24.9h-4.1V70.4c0-9.5-3.7-15.1-11-15.1
			c-5.3,0-9.5,3.9-11.1,8.3c-0.4,1.2-0.8,2.6-0.8,4.1v27h-4.1V68.4c0-7.6-3.7-13.2-10.4-13.2c-5.7,0-10.1,4.6-11.7,9.5
			c-0.4,1.1-0.7,2.6-0.7,4v26h-4.1V62.7z"/>
		<path d="M553.2,66.1c0-5.3-0.2-9.5-0.4-13.4h4l0.4,8h0.2c3-5.6,8.2-9,15.5-9c10.8,0,18.1,9,18.1,21.3c0,15.1-9,22.7-19.1,22.7
			c-6.1,0-11.4-2.7-14.3-7.8h-0.2v24.2h-4.1V66.1z M557.3,78.2c0,1.1,0.2,2.3,0.4,3.3c1.8,6.5,7.4,10.7,13.9,10.7
			c9.7,0,15.2-7.8,15.2-19.1c0-9.5-5.3-18.1-14.8-18.1c-6.1,0-12.1,4.3-14,11.2c-0.3,1.1-0.6,2.5-0.6,3.6V78.2z"/>
		<path d="M601.7,32.4h4.1v62.3h-4.1V32.4z"/>
		<path d="M620.9,73.3c0,13.5,7.4,18.8,16.1,18.8c6.1,0,9.3-1.2,11.7-2.4l1.1,3.3c-1.6,0.9-5.9,2.6-13.3,2.6
			c-12.1,0-19.7-8.8-19.7-21.2c0-14.1,8.1-22.8,19-22.8c13.8,0,16.4,13,16.4,19.1c0,1.1,0,1.8-0.2,2.5H620.9z M647.8,69.9
			c0.1-5.9-2.4-14.8-12.6-14.8c-9.3,0-13.3,8.3-14,14.8H647.8z"/>
		<path d="M687.9,40.4v12.2h12V56h-12v27.4c0,5.4,1.7,8.8,6.1,8.8c2.2,0,3.8-0.4,4.8-0.7l0.5,3.2c-1.4,0.5-3.3,1-5.9,1
			c-3.1,0-5.6-1-7.2-3c-1.9-2.2-2.6-5.7-2.6-10V56h-7.1v-3.3h7.1V41.7L687.9,40.4z"/>
		<path d="M709.3,73.3c0,13.5,7.4,18.8,16.1,18.8c6.1,0,9.3-1.2,11.7-2.4l1.1,3.3c-1.6,0.9-5.9,2.6-13.3,2.6
			c-12.1,0-19.7-8.8-19.7-21.2c0-14.1,8.1-22.8,19-22.8c13.8,0,16.4,13,16.4,19.1c0,1.1,0,1.8-0.2,2.5H709.3z M736.2,69.9
			c0.1-5.9-2.4-14.8-12.6-14.8c-9.3,0-13.3,8.3-14,14.8H736.2z"/>
		<path d="M750.8,52.6l7.2,10.3c1.8,2.5,3.2,4.7,4.8,7.2h0.2c1.7-2.5,3.2-4.8,4.9-7.2l7.2-10.3h4.7l-14.7,20.5l15.2,21.6h-4.7
			L768,84.1c-1.8-2.6-3.5-5.2-5.3-7.9h-0.2c-1.6,2.7-3.2,5.1-5.3,7.9l-7.4,10.7h-4.7l15.5-21.5L746,52.6H750.8z"/>
		<path d="M795.9,40.4v12.2h12V56h-12v27.4c0,5.4,1.7,8.8,6.1,8.8c2.2,0,3.8-0.4,4.8-0.7l0.5,3.2c-1.4,0.5-3.3,1-5.9,1
			c-3.1,0-5.6-1-7.2-3c-1.9-2.2-2.6-5.7-2.6-10V56h-7.1v-3.3h7.1V41.7L795.9,40.4z"/>
		<path d="M870.4,52.6c-0.2,3.2-0.4,6.5-0.4,10.9v25.1c0,10.8-2.2,16.2-5.7,19.5c-3.9,3.7-9.6,5-14.3,5c-4.8,0-10.2-1.2-13.3-3.6
			l1.5-3.4c2.9,1.9,7,3.5,12.5,3.5c8.9,0,15.3-4.6,15.3-17v-6h-0.2c-2.2,4.3-7.1,8.2-14.7,8.2c-10.6,0-18.1-9.2-18.1-20.7
			c0-14.7,9.7-22.4,19-22.4c8.3,0,12.5,4.6,14.2,8.1h0.2l0.2-7.1H870.4z M865.9,68.8c0-1.5-0.2-2.8-0.5-4c-1.8-5.1-6.2-9.7-13.1-9.7
			c-9,0-15.1,7.4-15.1,18.5c0,9.5,5,17.7,14.9,17.7c5.6,0,10.9-3.4,13-9.5c0.5-1.4,0.8-3,0.8-4.5V68.8z"/>
		<path d="M920.3,73.3c0,15.8-10.8,22.5-20.2,22.5c-10.9,0-19.3-8.5-19.3-21.7c0-14.5,9.5-22.4,19.9-22.4
			C912.4,51.7,920.3,60.3,920.3,73.3z M885,73.8c0,10.5,6.8,18.4,15.4,18.4c8.8,0,15.7-7.9,15.7-18.7c0-7.7-4.4-18.4-15.5-18.4
			C889.9,55.1,885,64.7,885,73.8z"/>
		<path d="M931.6,73.3c0,13.5,7.4,18.8,16.1,18.8c6.1,0,9.3-1.2,11.7-2.4l1.1,3.3c-1.6,0.9-5.9,2.6-13.3,2.6
			c-12.1,0-19.7-8.8-19.7-21.2c0-14.1,8.1-22.8,19-22.8c13.8,0,16.4,13,16.4,19.1c0,1.1,0,1.8-0.2,2.5H931.6z M958.5,69.9
			c0.1-5.9-2.4-14.8-12.6-14.8c-9.3,0-13.3,8.3-14,14.8H958.5z"/>
		<path d="M971.8,89.2c2.3,1.4,5.7,2.9,9.5,2.9c6.7,0,9.8-3.6,9.8-8c0-4.7-2.8-7.1-8.9-9.6c-6.9-2.6-10.7-6.4-10.7-11.5
			c0-6.1,4.7-11.4,13-11.4c3.9,0,7.1,1.1,9.3,2.6l-1.7,3.4c-1.4-1.1-4.1-2.5-8.3-2.5c-5.4,0-8.2,3.4-8.2,7.3c0,4.4,3,6.3,8.7,8.7
			c6.8,2.6,10.9,6.1,10.9,12.5c0,7.2-5.6,12-14.2,12c-4.1,0-7.9-1.1-10.7-2.9L971.8,89.2z"/>
		<path d="M1025.6,32.4h4.1v27.7h0.2c1.2-2.4,3.2-4.7,5.8-6.1c2.4-1.5,5.3-2.4,8.5-2.4c4,0,14.6,2,14.6,17.7v25.5h-4.1V69.8
			c0-7.6-3-14.6-11.6-14.6c-6,0-11,4.3-12.7,9.6c-0.4,1.2-0.6,2.5-0.6,4.1v25.8h-4.1V32.4z"/>
		<path d="M1073.2,73.3c0,13.5,7.4,18.8,16.1,18.8c6.1,0,9.3-1.2,11.7-2.4l1.1,3.3c-1.6,0.9-5.9,2.6-13.3,2.6
			c-12.1,0-19.7-8.8-19.7-21.2c0-14.1,8.1-22.8,19-22.8c13.8,0,16.4,13,16.4,19.1c0,1.1,0,1.8-0.2,2.5H1073.2z M1100.1,69.9
			c0.1-5.9-2.4-14.8-12.6-14.8c-9.3,0-13.3,8.3-14,14.8H1100.1z"/>
		<path d="M1115.2,65.3c0-4.2-0.2-8.6-0.4-12.6h3.9l0.2,8.5h0.2c1.8-5.3,6.2-9.5,12-9.5c0.5,0,1.1,0.1,1.7,0.2v4
			c-0.6-0.2-1.2-0.2-2-0.2c-5.8,0-9.9,5-11.1,11.8c-0.2,1.2-0.4,2.6-0.4,4v23.3h-4.1V65.3z"/>
		<path d="M1140.8,73.3c0,13.5,7.4,18.8,16.1,18.8c6.1,0,9.3-1.2,11.7-2.4l1.1,3.3c-1.6,0.9-5.9,2.6-13.3,2.6
			c-12.1,0-19.7-8.8-19.7-21.2c0-14.1,8.1-22.8,19-22.8c13.8,0,16.4,13,16.4,19.1c0,1.1,0,1.8-0.2,2.5H1140.8z M1167.6,69.9
			c0.1-5.9-2.4-14.8-12.6-14.8c-9.3,0-13.3,8.3-14,14.8H1167.6z"/>
		<path d="M1185.9,91.8c0-2.3,1.5-4,3.6-4s3.5,1.7,3.5,4c0,2.1-1.4,4-3.6,4C1187.3,95.7,1185.8,93.9,1185.9,91.8z M1215.1,91.8
			c0-2.3,1.5-4,3.6-4s3.5,1.7,3.5,4c0,2.1-1.4,4-3.6,4C1216.5,95.7,1215.1,93.9,1215.1,91.8z M1244.4,91.8c0-2.3,1.5-4,3.6-4
			s3.5,1.7,3.5,4c0,2.1-1.4,4-3.6,4C1245.8,95.7,1244.3,93.9,1244.4,91.8z"/>
	</g>
	<g>
		<path d="M15.7,142.3h2.5v17.6h8.4v2.1h-11V142.3z"/>
		<path d="M32.3,143.9c0,0.9-0.6,1.6-1.6,1.6c-0.9,0-1.6-0.7-1.6-1.6c0-0.9,0.7-1.6,1.6-1.6C31.7,142.3,32.3,143,32.3,143.9z
			 M29.4,162v-14.2H32V162H29.4z"/>
		<path d="M48.5,147.9c-0.1,1-0.1,2.2-0.1,3.9v8.2c0,3.3-0.6,5.2-2,6.5c-1.4,1.3-3.4,1.7-5.2,1.7c-1.7,0-3.6-0.4-4.7-1.2l0.6-2
			c0.9,0.6,2.4,1.1,4.2,1.1c2.6,0,4.6-1.4,4.6-5v-1.6h-0.1c-0.8,1.3-2.3,2.4-4.5,2.4c-3.5,0-6-3-6-6.9c0-4.8,3.1-7.5,6.4-7.5
			c2.5,0,3.8,1.3,4.4,2.5h0.1l0.1-2.1H48.5z M45.8,153.5c0-0.4,0-0.8-0.1-1.2c-0.5-1.5-1.7-2.7-3.6-2.7c-2.5,0-4.2,2.1-4.2,5.4
			c0,2.8,1.4,5.1,4.2,5.1c1.6,0,3-1,3.6-2.6c0.1-0.4,0.2-0.9,0.2-1.4V153.5z"/>
		<path d="M52.7,141.2h2.6v8.8h0.1c0.4-0.7,1.1-1.4,1.8-1.8c0.8-0.4,1.7-0.7,2.6-0.7c1.9,0,5,1.2,5,6.1v8.4h-2.6v-8.1
			c0-2.3-0.8-4.2-3.3-4.2c-1.7,0-3,1.2-3.5,2.6c-0.1,0.4-0.2,0.7-0.2,1.2v8.6h-2.6V141.2z"/>
		<path d="M71.9,143.8v4.1h3.7v2h-3.7v7.6c0,1.8,0.5,2.8,1.9,2.8c0.7,0,1.2-0.1,1.5-0.2l0.1,1.9c-0.5,0.2-1.3,0.4-2.3,0.4
			c-1.2,0-2.2-0.4-2.8-1.1c-0.7-0.8-1-2-1-3.7v-7.7h-2.2v-2h2.2v-3.4L71.9,143.8z"/>
	</g>
</g>
<g>
	<g>
		<line x1="161.8" y1="378.6" x2="1182.4" y2="378.6"/>
		<rect x="161.8" y="378" width="1020.6" height="1.2"/>
	</g>
	<g>
		<path d="M23.3,311.6c3,2.2,7.1,3.8,11.7,3.8c7.8,0,14.9-5,14.9-13.7c0-5.1-2.4-9-9-12.7c-8.3-4.6-11.5-9.3-11.5-14.9
			c0-9.7,8.3-16.2,17.9-16.2c4.9,0,9.3,1.8,11,3.2l-1.7,3.1c-1.8-1.1-5.3-2.9-9.8-2.9c-8.2,0-13.4,6-13.4,11.9
			c0,5.6,2.6,8.7,9.6,12.6c7.3,4,11,8.6,11,16c0,8.4-6.2,17.2-19.7,17.2c-4.5,0-10.3-1.8-12.6-4L23.3,311.6z"/>
		<path d="M100.8,292.5c0,11.5-8.4,26.4-22.3,26.4c-10.4,0-15.6-8.4-15.6-17.2c0-13.5,9.4-26.9,22.3-26.9
			C96.6,274.8,100.8,283.9,100.8,292.5z M67,301.3c0,8.1,4.7,14.1,12,14.1c9.6,0,17.7-11.7,17.7-23.1c0-5.6-2.6-14.2-11.8-14.2
			C74.5,278.1,67,289.7,67,301.3z"/>
		<path d="M106.8,317.9l5.8-30.8c0.9-4.3,1.4-8,1.8-11.3h3.7l-1.3,8.5h0.2c4-6.1,9.4-9.5,15.2-9.5c6.2,0,9.5,4,9.7,10.3
			c3.8-6.5,9.1-10.2,16.1-10.3c3.9,0,10.2,2.5,10.2,10.9c0,2-0.2,4.6-0.6,7.1l-4.8,25.1h-4l4.7-25.1c0.4-1.6,0.6-3.9,0.6-5.7
			c0-5.4-1.9-8.8-7.7-8.8c-6,0-13.5,6.4-15.4,16.4l-4.3,23.2h-4l4.9-25.7c0.4-2,0.6-3.6,0.6-5.4c0-4-1.1-8.5-7.8-8.5
			c-5.9,0-13.9,7.6-15.5,17l-4.2,22.6H106.8z"/>
		<path d="M203.8,315.5c-2.1,1.4-6.5,3.3-12.7,3.3c-10.7,0-14.7-8.1-14.7-16.4c0-12.6,9.5-27.6,22-27.6c7.6,0,10.9,4.7,10.9,9.7
			c0,11.3-13.7,13.6-28.5,13.3c-0.5,2.3-0.4,7.5,0.6,10.4c1.7,4.8,5.4,7.2,10.2,7.2c5.3,0,9-1.8,11.1-3L203.8,315.5z M197.7,278.2
			c-7.6,0-14,8-16.3,16.2c12.5,0.2,23.9-1.5,23.9-9.7C205.3,280.4,202,278.2,197.7,278.2z"/>
		<path d="M229,312.9c1.8,1.2,4.7,2.5,7.9,2.5c5.7,0,9.7-4,9.7-8.8c0-4-1.5-6.5-6.2-9.3c-4.8-2.9-6.8-6.7-6.8-10.5
			c0-6.5,5.5-12,13.3-12c3.1,0,6.1,1.1,7.5,2l-1.5,3.4c-1.2-0.9-3.7-2-6.5-2c-5.1,0-8.8,3.6-8.8,8c0,4,2.2,6.1,6.1,8.5
			c4.8,2.9,6.9,6.8,6.9,10.8c0,8.3-6.6,13.3-14.1,13.3c-4,0-7.5-1.4-9-2.6L229,312.9z"/>
		<path d="M288,317.9c-0.1-2.6,0.4-7.3,1.1-12.5H289c-4.9,9.8-11.1,13.4-17.7,13.4c-7.4,0-11.7-6-11.7-13.4
			c0-15,11.6-30.6,28.5-30.6c3.4,0,7.2,0.5,9.7,1.2l-4.2,22c-1.6,8.5-2,15.6-1.8,19.9H288z M293.4,279c-1.1-0.4-2.8-0.8-6.1-0.8
			c-12.7,0-23.5,12.3-23.6,26.5c0,5.1,1.6,10.7,8.5,10.7c7.6,0,16.2-10.1,18.4-21.9L293.4,279z"/>
		<path d="M304,317.9l5.8-30.8c0.9-4.3,1.4-8,1.8-11.3h3.7l-1.3,8.5h0.2c4-6.1,9.4-9.5,15.2-9.5c6.2,0,9.5,4,9.7,10.3
			c3.8-6.5,9.1-10.2,16.1-10.3c3.9,0,10.2,2.5,10.2,10.9c0,2-0.2,4.6-0.6,7.1l-4.8,25.1h-4l4.7-25.1c0.4-1.6,0.6-3.9,0.6-5.7
			c0-5.4-1.9-8.8-7.7-8.8c-6,0-13.5,6.4-15.4,16.4l-4.3,23.2h-4l4.9-25.7c0.4-2,0.6-3.6,0.6-5.4c0-4-1.1-8.5-7.8-8.5
			c-5.9,0-13.9,7.6-15.5,17l-4.2,22.6H304z"/>
		<path d="M369.7,335.3l8.6-45.5c1-5.1,1.8-9.8,2.3-14.1h3.8l-1.4,9h0.2c4-6.1,10-10,16.2-10c9.2,0,12.6,7.6,12.6,14.8
			c0,14.9-11.2,29.3-24.9,29.3c-5.2,0-8.2-1.1-9.9-2H377l-3.3,18.4H369.7z M377.8,313c2.2,1.6,5.4,2.5,9.6,2.5
			c11,0,20.4-12.9,20.4-25.6c0-5.1-2.2-11.6-9.7-11.6c-6.4,0-15.2,7.3-17.8,21.3L377.8,313z"/>
		<path d="M417.9,317.9l11.9-62.3h4l-11.9,62.3H417.9z"/>
		<path d="M463.3,315.5c-2.1,1.4-6.5,3.3-12.7,3.3c-10.7,0-14.7-8.1-14.7-16.4c0-12.6,9.5-27.6,22-27.6c7.6,0,10.9,4.7,10.9,9.7
			c0,11.3-13.7,13.6-28.5,13.3c-0.5,2.3-0.4,7.5,0.6,10.4c1.7,4.8,5.4,7.2,10.2,7.2c5.3,0,9-1.8,11.1-3L463.3,315.5z M457.2,278.2
			c-7.6,0-14,8-16.3,16.2c12.5,0.2,23.9-1.5,23.9-9.7C464.8,280.4,461.5,278.2,457.2,278.2z"/>
		<path d="M504.6,264.7l-2.1,11.1h10.7l-0.6,3.2h-10.8l-4.6,24.4c-0.5,2.8-0.9,4.9-0.9,7.6c0,2.8,1.4,4.5,4.2,4.5
			c1.4,0,2.5-0.2,3.4-0.4l0.4,3.2c-1.1,0.4-2.8,0.6-4.6,0.6c-5.6,0-7.6-3.9-7.6-7.6c0-2.5,0.4-5.1,1-8l4.7-24.2h-6.4l0.6-3.2h6.5
			l1.8-9.9L504.6,264.7z"/>
		<path d="M541.6,315.5c-2.1,1.4-6.5,3.3-12.7,3.3c-10.7,0-14.7-8.1-14.7-16.4c0-12.6,9.5-27.6,22-27.6c7.6,0,10.9,4.7,10.9,9.7
			c0,11.3-13.7,13.6-28.5,13.3c-0.5,2.3-0.4,7.5,0.6,10.4c1.7,4.8,5.4,7.2,10.2,7.2c5.3,0,9-1.8,11.1-3L541.6,315.5z M535.6,278.2
			c-7.6,0-14,8-16.3,16.2c12.5,0.2,23.9-1.5,23.9-9.7C543.1,280.4,539.9,278.2,535.6,278.2z"/>
		<path d="M558.6,275.8l5.1,11c1.1,2.3,1.9,4.4,2.9,6.5h0.3c1.7-2.4,2.5-3.5,4.7-6.1l9.7-11.3h4.7l-17.8,20.5l10.1,21.6h-4.3
			l-5.2-11.3c-1.6-3.2-2.1-4.5-3.2-7.4h-0.3c-1.3,2-2.6,3.9-4.4,6.1l-10.7,12.6h-4.7l18.6-21.7l-9.7-20.5H558.6z"/>
		<path d="M603.2,264.7l-2.1,11.1h10.7l-0.6,3.2h-10.8l-4.6,24.4c-0.5,2.8-0.9,4.9-0.9,7.6c0,2.8,1.4,4.5,4.2,4.5
			c1.4,0,2.5-0.2,3.4-0.4l0.4,3.2c-1.1,0.4-2.8,0.6-4.6,0.6c-5.6,0-7.6-3.9-7.6-7.6c0-2.5,0.4-5.1,1-8l4.7-24.2H590l0.6-3.2h6.5
			l1.8-9.9L603.2,264.7z"/>
		<path d="M627.8,329.9c2.7,1.8,6.3,3,11.2,3c7.7,0,13.9-4.1,16.9-17.4l1.8-8.1h-0.2c-4,7.2-9.9,10.7-16.3,10.7
			c-8.5,0-12.4-7.4-12.4-14.3c0-14.7,10.8-29,25.8-29c4.2,0,9.7,1.5,12.2,2.9l-6.5,34.9c-1.8,9.7-4.3,15.4-8.3,19
			c-4,3.7-9.5,4.7-13.8,4.7c-4.8,0-9.4-1.3-11.9-3.2L627.8,329.9z M662.4,280.1c-1.6-0.8-4.7-1.8-8.6-1.8c-12.5,0-20.9,12.7-21,24.7
			c0,4.9,1.5,11.8,9.6,11.8c7.6,0,15.3-9.8,16.9-18.8L662.4,280.1z"/>
		<path d="M711,292.5c0,11.5-8.4,26.4-22.3,26.4c-10.5,0-15.6-8.4-15.6-17.2c0-13.5,9.4-26.9,22.3-26.9
			C706.8,274.8,711,283.9,711,292.5z M677.2,301.3c0,8.1,4.7,14.1,12,14.1c9.6,0,17.7-11.7,17.7-23.1c0-5.6-2.6-14.2-11.8-14.2
			C684.8,278.1,677.2,289.7,677.2,301.3z"/>
		<path d="M744.3,315.5c-2.1,1.4-6.5,3.3-12.7,3.3c-10.7,0-14.7-8.1-14.7-16.4c0-12.6,9.5-27.6,22-27.6c7.6,0,10.9,4.7,10.9,9.7
			c0,11.3-13.7,13.6-28.5,13.3c-0.5,2.3-0.4,7.5,0.6,10.4c1.7,4.8,5.4,7.2,10.2,7.2c5.3,0,9-1.8,11.1-3L744.3,315.5z M738.2,278.2
			c-7.6,0-14,8-16.3,16.2c12.5,0.2,23.9-1.5,23.9-9.7C745.8,280.4,742.5,278.2,738.2,278.2z"/>
		<path d="M753.7,312.9c1.8,1.2,4.7,2.5,7.9,2.5c5.7,0,9.7-4,9.7-8.8c0-4-1.5-6.5-6.2-9.3c-4.8-2.9-6.8-6.7-6.8-10.5
			c0-6.5,5.5-12,13.3-12c3.1,0,6.1,1.1,7.5,2l-1.5,3.4c-1.2-0.9-3.7-2-6.5-2c-5.1,0-8.8,3.6-8.8,8c0,4,2.2,6.1,6.1,8.5
			c4.8,2.9,6.9,6.8,6.9,10.8c0,8.3-6.6,13.3-14,13.3c-4,0-7.5-1.4-9-2.6L753.7,312.9z"/>
		<path d="M800.3,317.9l11.9-62.3h4l-5.7,28.9h0.2c3.8-6,9.2-9.7,16.2-9.7c3.7,0,10.4,2.1,10.4,11.2c0,2.4-0.2,4.8-0.6,6.8l-4.7,25
			h-4l4.7-25.2c0.4-1.4,0.6-3.5,0.6-6.1c0-4.6-2.3-8.3-8-8.3c-6.4,0-15,7.3-16.9,17.3l-4.1,22.3H800.3z"/>
		<path d="M872.9,315.5c-2.1,1.4-6.5,3.3-12.7,3.3c-10.7,0-14.7-8.1-14.7-16.4c0-12.6,9.5-27.6,22-27.6c7.6,0,10.9,4.7,10.9,9.7
			c0,11.3-13.7,13.6-28.5,13.3c-0.5,2.3-0.4,7.5,0.6,10.4c1.7,4.8,5.4,7.2,10.2,7.2c5.3,0,9-1.8,11.1-3L872.9,315.5z M866.9,278.2
			c-7.6,0-14,8-16.3,16.2c12.5,0.2,23.9-1.5,23.9-9.7C874.4,280.4,871.2,278.2,866.9,278.2z"/>
		<path d="M882.8,317.9l5.4-28.5c0.9-5,1.6-9.7,2.1-13.7h3.6c-0.4,3-0.8,6-1.4,9.5h0.3c2.6-5.9,7-10.4,12.6-10.4
			c0.6,0,1.5,0.1,1.9,0.2l-0.8,4c-0.4-0.2-1.1-0.2-1.9-0.2c-5.3,0-12,7.9-14,18.6l-3.9,20.5H882.8z"/>
		<path d="M934.6,315.5c-2.1,1.4-6.5,3.3-12.7,3.3c-10.7,0-14.7-8.1-14.7-16.4c0-12.6,9.5-27.6,22-27.6c7.6,0,10.9,4.7,10.9,9.7
			c0,11.3-13.7,13.6-28.5,13.3c-0.5,2.3-0.4,7.5,0.6,10.4c1.7,4.8,5.4,7.2,10.2,7.2c5.3,0,9-1.8,11.1-3L934.6,315.5z M928.5,278.2
			c-7.6,0-14,8-16.3,16.2c12.5,0.2,23.9-1.5,23.9-9.7C936.1,280.4,932.8,278.2,928.5,278.2z"/>
		<path d="M947.8,315c0-2.3,1.6-4,3.7-4c2.2,0,3.4,1.8,3.4,3.9c0,2.1-1.4,4-3.7,4C949.2,318.9,947.8,317.1,947.8,315z M977.1,315
			c0-2.3,1.6-4,3.7-4c2.2,0,3.4,1.8,3.4,3.9c0,2.1-1.4,4-3.6,4C978.5,318.9,977.1,317.1,977.1,315z M1006.3,315c0-2.3,1.6-4,3.7-4
			c2.2,0,3.5,1.8,3.5,3.9c0,2.1-1.5,4-3.7,4C1007.7,318.9,1006.3,317.1,1006.3,315z"/>
	</g>
	<g>
		<path d="M15.7,364.2h2.5v17.6h8.4v2.1h-11V364.2z"/>
		<path d="M32.3,365.7c0,0.9-0.6,1.6-1.6,1.6c-0.9,0-1.6-0.7-1.6-1.6c0-0.9,0.7-1.6,1.6-1.6C31.7,364.1,32.3,364.8,32.3,365.7z
			 M29.4,383.9v-14.2H32v14.2H29.4z"/>
		<path d="M48.5,369.7c-0.1,1-0.1,2.2-0.1,3.9v8.2c0,3.3-0.6,5.2-2,6.5c-1.4,1.3-3.4,1.7-5.2,1.7c-1.7,0-3.6-0.4-4.7-1.2l0.6-2
			c0.9,0.6,2.4,1.1,4.2,1.1c2.6,0,4.6-1.4,4.6-5v-1.6h-0.1c-0.8,1.3-2.3,2.4-4.5,2.4c-3.5,0-6-3-6-6.9c0-4.8,3.1-7.5,6.4-7.5
			c2.5,0,3.8,1.3,4.4,2.5h0.1l0.1-2.1H48.5z M45.8,375.3c0-0.4,0-0.8-0.1-1.2c-0.5-1.5-1.7-2.7-3.6-2.7c-2.5,0-4.2,2.1-4.2,5.4
			c0,2.8,1.4,5.1,4.2,5.1c1.6,0,3-1,3.6-2.6c0.1-0.4,0.2-0.9,0.2-1.4V375.3z"/>
		<path d="M52.7,363.1h2.6v8.8h0.1c0.4-0.7,1.1-1.4,1.8-1.8c0.8-0.4,1.7-0.7,2.6-0.7c1.9,0,5,1.2,5,6.1v8.4h-2.6v-8.1
			c0-2.3-0.8-4.2-3.3-4.2c-1.7,0-3,1.2-3.5,2.6c-0.1,0.4-0.2,0.7-0.2,1.2v8.6h-2.6V363.1z"/>
		<path d="M71.9,365.7v4.1h3.7v2h-3.7v7.6c0,1.8,0.5,2.8,1.9,2.8c0.7,0,1.2-0.1,1.5-0.2l0.1,1.9c-0.5,0.2-1.3,0.4-2.3,0.4
			c-1.2,0-2.2-0.4-2.8-1.1c-0.7-0.8-1-2-1-3.7v-7.7h-2.2v-2h2.2v-3.4L71.9,365.7z"/>
		<path d="M87.3,364.2v19.7h-2.5v-19.7H87.3z"/>
		<path d="M95.3,365.7v4.1H99v2h-3.7v7.6c0,1.8,0.5,2.8,1.9,2.8c0.7,0,1.2-0.1,1.5-0.2l0.1,1.9c-0.5,0.2-1.3,0.4-2.3,0.4
			c-1.2,0-2.2-0.4-2.8-1.1c-0.7-0.8-1-2-1-3.7v-7.7h-2.2v-2h2.2v-3.4L95.3,365.7z"/>
		<path d="M109.7,383.9l-0.2-1.8h-0.1c-0.8,1.1-2.3,2.1-4.3,2.1c-2.9,0-4.3-2-4.3-4.1c0-3.4,3-5.3,8.5-5.3v-0.3
			c0-1.2-0.3-3.3-3.2-3.3c-1.3,0-2.7,0.4-3.7,1.1l-0.6-1.7c1.2-0.8,2.9-1.3,4.7-1.3c4.3,0,5.4,3,5.4,5.8v5.3c0,1.2,0.1,2.4,0.2,3.4
			H109.7z M109.3,376.7c-2.8-0.1-6,0.4-6,3.2c0,1.7,1.1,2.5,2.4,2.5c1.8,0,3-1.2,3.4-2.4c0.1-0.3,0.1-0.6,0.1-0.8V376.7z"/>
		<path d="M116,363.1h2.6v20.8H116V363.1z"/>
		<path d="M125.8,365.7c0,0.9-0.6,1.6-1.6,1.6c-0.9,0-1.6-0.7-1.6-1.6c0-0.9,0.7-1.6,1.6-1.6C125.2,364.1,125.8,364.8,125.8,365.7z
			 M122.9,383.9v-14.2h2.6v14.2H122.9z"/>
		<path d="M139.9,383.4c-0.7,0.4-2.2,0.8-4.1,0.8c-4.3,0-7.1-2.9-7.1-7.2c0-4.4,3-7.5,7.6-7.5c1.5,0,2.9,0.4,3.6,0.7l-0.6,2
			c-0.6-0.4-1.6-0.7-3-0.7c-3.3,0-5,2.4-5,5.4c0,3.3,2.1,5.3,4.9,5.3c1.5,0,2.4-0.4,3.2-0.7L139.9,383.4z"/>
	</g>
</g>
<g>
	<g>
		<line x1="195" y1="601.4" x2="1182.4" y2="601.4"/>
		<rect x="195" y="600.8" width="987.5" height="1.2"/>
	</g>
	<g>
		<path d="M25.6,530.2c3.4,2.1,8.4,3.9,13.7,3.9c7.8,0,12.4-4.1,12.4-10.1c0-5.5-3.2-8.7-11.2-11.8c-9.7-3.4-15.6-8.4-15.6-16.8
			c0-9.2,7.6-16.1,19.1-16.1c6.1,0,10.5,1.4,13.1,2.9l-2.1,6.2c-1.9-1.1-5.9-2.8-11.2-2.8c-8.1,0-11.2,4.8-11.2,8.9
			c0,5.5,3.6,8.3,11.8,11.4c10,3.9,15.1,8.7,15.1,17.4c0,9.1-6.8,17-20.7,17c-5.7,0-11.9-1.7-15.1-3.8L25.6,530.2z"/>
		<path d="M108.7,517.9c0,15.7-10.9,22.6-21.2,22.6c-11.5,0-20.4-8.4-20.4-21.9c0-14.2,9.3-22.6,21.1-22.6
			C100.4,496,108.7,504.9,108.7,517.9z M75,518.3c0,9.3,5.4,16.3,12.9,16.3c7.4,0,12.9-6.9,12.9-16.5c0-7.2-3.6-16.3-12.7-16.3
			S75,510.2,75,518.3z"/>
		<path d="M118.4,508.5c0-4.4-0.1-8-0.4-11.5h6.8l0.4,6.8h0.3c2.4-4,6.3-7.8,13.3-7.8c5.8,0,10.2,3.5,12,8.5h0.2
			c1.3-2.4,3-4.2,4.7-5.5c2.5-1.9,5.4-3,9.4-3c5.6,0,14,3.7,14,18.4v25h-7.6v-24.1c0-8.2-3-13.1-9.2-13.1c-4.4,0-7.8,3.2-9.1,7
			c-0.4,1.1-0.6,2.5-0.6,3.9v26.3H145V514c0-6.8-3-11.7-8.9-11.7c-4.8,0-8.3,3.9-9.6,7.7c-0.4,1.1-0.6,2.5-0.6,3.8v25.6h-7.6V508.5z
			"/>
		<path d="M196,519.6c0.2,10.5,6.8,14.8,14.6,14.8c5.5,0,8.9-1,11.8-2.2l1.3,5.5c-2.7,1.2-7.4,2.6-14.1,2.6
			c-13.1,0-20.9-8.6-20.9-21.4c0-12.8,7.6-22.9,19.9-22.9c13.9,0,17.6,12.2,17.6,20c0,1.6-0.2,2.8-0.3,3.6H196z M218.6,514.1
			c0.1-4.9-2-12.6-10.7-12.6c-7.8,0-11.2,7.2-11.9,12.6H218.6z"/>
		<path d="M253.2,531.6c2.3,1.5,6.3,3.1,10.2,3.1c5.6,0,8.3-2.8,8.3-6.3c0-3.7-2.2-5.7-7.9-7.8c-7.6-2.7-11.2-6.9-11.2-12
			c0-6.8,5.5-12.5,14.7-12.5c4.3,0,8.1,1.2,10.4,2.6l-1.9,5.6c-1.7-1.1-4.7-2.5-8.7-2.5c-4.6,0-7.1,2.6-7.1,5.8
			c0,3.5,2.5,5.1,8.1,7.2c7.4,2.8,11.2,6.5,11.2,12.8c0,7.5-5.8,12.7-15.9,12.7c-4.7,0-9-1.1-11.9-2.9L253.2,531.6z"/>
		<path d="M312.6,539.5l-0.6-5.4h-0.3c-2.4,3.3-6.9,6.3-13,6.3c-8.6,0-13-6.1-13-12.2c0-10.3,9.1-15.9,25.6-15.8v-0.9
			c0-3.5-1-9.8-9.7-9.8c-4,0-8.1,1.2-11.1,3.2l-1.8-5.1c3.5-2.3,8.6-3.8,14-3.8c13,0,16.2,8.9,16.2,17.4v15.9
			c0,3.7,0.2,7.3,0.7,10.2H312.6z M311.5,517.8c-8.4-0.2-18,1.3-18,9.6c0,5,3.3,7.4,7.3,7.4c5.5,0,9-3.5,10.3-7.1
			c0.3-0.8,0.4-1.7,0.4-2.5V517.8z"/>
		<path d="M331.4,508.5c0-4.4-0.1-8-0.4-11.5h6.8l0.4,6.8h0.3c2.4-4,6.3-7.8,13.3-7.8c5.8,0,10.2,3.5,12,8.5h0.2
			c1.3-2.4,3-4.2,4.7-5.5c2.5-1.9,5.4-3,9.4-3c5.6,0,14,3.7,14,18.4v25h-7.6v-24.1c0-8.2-3-13.1-9.2-13.1c-4.4,0-7.8,3.2-9.1,7
			c-0.4,1.1-0.6,2.5-0.6,3.9v26.3H358V514c0-6.8-3-11.7-8.9-11.7c-4.8,0-8.3,3.9-9.6,7.7c-0.4,1.1-0.6,2.5-0.6,3.8v25.6h-7.6V508.5z
			"/>
		<path d="M404.6,510.8c0-5.4-0.2-9.8-0.4-13.9h6.9l0.4,7.3h0.2c3.2-5.2,8.2-8.3,15.1-8.3c10.3,0,18,8.7,18,21.6
			c0,15.3-9.3,22.8-19.3,22.8c-5.6,0-10.5-2.5-13.1-6.7h-0.2v23.1h-7.6V510.8z M412.3,522.2c0,1.1,0.2,2.2,0.4,3.2
			c1.4,5.4,6.1,9,11.6,9c8.2,0,12.9-6.7,12.9-16.4c0-8.5-4.5-15.8-12.6-15.8c-5.3,0-10.2,3.8-11.7,9.6c-0.3,1-0.5,2.1-0.5,3.2V522.2
			z"/>
		<path d="M454.6,477.1h7.7v62.3h-7.7V477.1z"/>
		<path d="M479.6,519.6c0.2,10.5,6.8,14.8,14.6,14.8c5.5,0,8.9-1,11.8-2.2l1.3,5.5c-2.7,1.2-7.4,2.6-14.1,2.6
			c-13.1,0-20.9-8.6-20.9-21.4c0-12.8,7.6-22.9,19.9-22.9c13.9,0,17.6,12.2,17.6,20c0,1.6-0.2,2.8-0.3,3.6H479.6z M502.3,514.1
			c0.1-4.9-2-12.6-10.7-12.6c-7.8,0-11.2,7.2-11.9,12.6H502.3z"/>
		<path d="M547.2,484.8V497h11.1v5.9h-11.1v22.9c0,5.3,1.5,8.3,5.8,8.3c2,0,3.5-0.3,4.5-0.5l0.4,5.8c-1.5,0.6-3.9,1.1-6.8,1.1
			c-3.6,0-6.5-1.1-8.3-3.2c-2.2-2.3-3-6.1-3-11.1v-23.2h-6.6V497h6.6v-10.2L547.2,484.8z"/>
		<path d="M570.8,519.6c0.2,10.5,6.8,14.8,14.6,14.8c5.5,0,8.9-1,11.8-2.2l1.3,5.5c-2.7,1.2-7.4,2.6-14.1,2.6
			c-13.1,0-20.9-8.6-20.9-21.4c0-12.8,7.6-22.9,19.9-22.9c13.9,0,17.6,12.2,17.6,20c0,1.6-0.2,2.8-0.3,3.6H570.8z M593.4,514.1
			c0.1-4.9-2-12.6-10.7-12.6c-7.8,0-11.2,7.2-11.9,12.6H593.4z"/>
		<path d="M613.8,497l6.1,9.1c1.6,2.4,2.9,4.6,4.3,6.9h0.3c1.4-2.5,2.8-4.7,4.2-7l6-9h8.3l-14.5,20.5l14.9,22h-8.8l-6.2-9.6
			c-1.7-2.5-3.1-4.8-4.6-7.4h-0.2c-1.4,2.5-2.9,4.8-4.5,7.4l-6.1,9.6h-8.5l15.1-21.7L605.2,497H613.8z"/>
		<path d="M661.3,484.8V497h11.1v5.9h-11.1v22.9c0,5.3,1.5,8.3,5.8,8.3c2,0,3.5-0.3,4.5-0.5l0.4,5.8c-1.5,0.6-3.9,1.1-6.8,1.1
			c-3.6,0-6.5-1.1-8.3-3.2c-2.2-2.3-3-6.1-3-11.1v-23.2h-6.6V497h6.6v-10.2L661.3,484.8z"/>
		<path d="M736.3,497c-0.2,3.1-0.4,6.5-0.4,11.7v24.7c0,9.7-1.9,15.7-6.1,19.4c-4.1,3.9-10.1,5.1-15.5,5.1c-5.1,0-10.7-1.2-14.1-3.5
			l1.9-5.9c2.8,1.8,7.2,3.3,12.5,3.3c7.9,0,13.7-4.1,13.7-14.8v-4.7h-0.2c-2.4,4-6.9,7.1-13.5,7.1c-10.5,0-18.1-9-18.1-20.7
			c0-14.4,9.4-22.6,19.1-22.6c7.4,0,11.4,3.9,13.3,7.4h0.2l0.4-6.4H736.3z M728.3,513.7c0-1.3-0.1-2.5-0.4-3.5
			c-1.4-4.5-5.2-8.2-10.8-8.2c-7.4,0-12.6,6.2-12.6,16.1c0,8.3,4.2,15.3,12.6,15.3c4.7,0,9-3,10.7-7.9c0.4-1.3,0.6-2.8,0.6-4.1
			V513.7z"/>
		<path d="M787.2,517.9c0,15.7-10.9,22.6-21.2,22.6c-11.5,0-20.4-8.4-20.4-21.9c0-14.2,9.3-22.6,21.1-22.6
			C779,496,787.2,504.9,787.2,517.9z M753.5,518.3c0,9.3,5.4,16.3,12.9,16.3c7.4,0,12.9-6.9,12.9-16.5c0-7.2-3.6-16.3-12.7-16.3
			C757.5,501.8,753.5,510.2,753.5,518.3z"/>
		<path d="M801.3,519.6c0.2,10.5,6.8,14.8,14.6,14.8c5.5,0,8.9-1,11.8-2.2l1.3,5.5c-2.7,1.2-7.4,2.6-14.1,2.6
			c-13.1,0-20.9-8.6-20.9-21.4c0-12.8,7.6-22.9,19.9-22.9c13.9,0,17.6,12.2,17.6,20c0,1.6-0.2,2.8-0.3,3.6H801.3z M823.9,514.1
			c0.1-4.9-2-12.6-10.7-12.6c-7.8,0-11.2,7.2-11.9,12.6H823.9z"/>
		<path d="M839.9,531.6c2.3,1.5,6.3,3.1,10.2,3.1c5.6,0,8.3-2.8,8.3-6.3c0-3.7-2.2-5.7-7.9-7.8c-7.6-2.7-11.2-6.9-11.2-12
			c0-6.8,5.5-12.5,14.7-12.5c4.3,0,8.1,1.2,10.5,2.6l-1.9,5.6c-1.7-1.1-4.7-2.5-8.7-2.5c-4.6,0-7.1,2.6-7.1,5.8
			c0,3.5,2.5,5.1,8.1,7.2c7.4,2.8,11.2,6.5,11.2,12.8c0,7.5-5.8,12.7-15.9,12.7c-4.7,0-9-1.1-11.9-2.9L839.9,531.6z"/>
		<path d="M894.4,477.1h7.7v26.5h0.2c1.2-2.2,3.2-4.1,5.5-5.4c2.3-1.3,5-2.2,7.9-2.2c5.7,0,14.8,3.5,14.8,18.2v25.3h-7.7v-24.4
			c0-6.8-2.5-12.6-9.8-12.6c-5,0-9,3.5-10.4,7.7c-0.4,1.1-0.5,2.2-0.5,3.7v25.6h-7.7V477.1z"/>
		<path d="M947.4,519.6c0.2,10.5,6.8,14.8,14.6,14.8c5.5,0,8.9-1,11.8-2.2l1.3,5.5c-2.7,1.2-7.4,2.6-14.1,2.6
			c-13.1,0-20.9-8.6-20.9-21.4c0-12.8,7.6-22.9,19.9-22.9c13.9,0,17.6,12.2,17.6,20c0,1.6-0.2,2.8-0.3,3.6H947.4z M970.1,514.1
			c0.1-4.9-2-12.6-10.7-12.6c-7.8,0-11.2,7.2-11.9,12.6H970.1z"/>
		<path d="M987.1,510.2c0-5-0.1-9.3-0.4-13.3h6.8l0.3,8.3h0.4c1.9-5.7,6.6-9.3,11.8-9.3c0.9,0,1.5,0.1,2.2,0.3v7.3
			c-0.8-0.2-1.6-0.3-2.6-0.3c-5.4,0-9.3,4.1-10.4,9.9c-0.2,1.1-0.4,2.3-0.4,3.6v22.7h-7.6V510.2z"/>
		<path d="M1019.2,519.6c0.2,10.5,6.8,14.8,14.6,14.8c5.5,0,8.9-1,11.8-2.2l1.3,5.5c-2.7,1.2-7.4,2.6-14.1,2.6
			c-13.1,0-20.9-8.6-20.9-21.4c0-12.8,7.6-22.9,19.9-22.9c13.9,0,17.6,12.2,17.6,20c0,1.6-0.2,2.8-0.3,3.6H1019.2z M1041.9,514.1
			c0.1-4.9-2-12.6-10.7-12.6c-7.8,0-11.2,7.2-11.9,12.6H1041.9z"/>
		<path d="M1060.9,534.9c0-3.2,2.1-5.5,5.2-5.5c3.2,0,5.2,2.3,5.2,5.5c0,3.2-2,5.5-5.2,5.5C1063.1,540.4,1060.9,538.1,1060.9,534.9z
			 M1090.2,534.9c0-3.2,2.2-5.5,5.3-5.5s5.1,2.3,5.2,5.5c0,3.2-2.1,5.5-5.3,5.5C1092.3,540.4,1090.1,538.1,1090.2,534.9z
			 M1119.4,534.9c0-3.2,2.2-5.5,5.3-5.5s5.2,2.3,5.2,5.5c0,3.2-2,5.5-5.3,5.5C1121.5,540.4,1119.4,538.1,1119.4,534.9z"/>
	</g>
	<g>
		<path d="M15.7,587.9c1.3-0.3,3.1-0.4,4.9-0.4c2.7,0,4.5,0.5,5.7,1.6c1,0.9,1.6,2.2,1.6,3.8c0,2.6-1.6,4.3-3.7,5v0.1
			c1.5,0.5,2.4,1.9,2.9,4c0.6,2.8,1.1,4.7,1.5,5.4h-2.6c-0.3-0.6-0.8-2.3-1.3-4.7c-0.6-2.7-1.6-3.8-4-3.8h-2.4v8.6h-2.5V587.9z
			 M18.2,596.9h2.6c2.7,0,4.5-1.5,4.5-3.8c0-2.5-1.8-3.7-4.5-3.7c-1.2,0-2.1,0.1-2.5,0.2V596.9z"/>
		<path d="M32.9,600.8c0.1,3.5,2.3,4.9,4.9,4.9c1.8,0,3-0.3,3.9-0.7l0.4,1.8c-0.9,0.4-2.5,0.9-4.7,0.9c-4.4,0-7-2.9-7-7.1
			s2.5-7.6,6.7-7.6c4.6,0,5.9,4.1,5.9,6.7c0,0.5-0.1,0.9-0.1,1.2H32.9z M40.5,598.9c0-1.6-0.7-4.2-3.6-4.2c-2.6,0-3.8,2.4-4,4.2
			H40.5z"/>
		<path d="M58.4,593.2c-0.1,1-0.1,2.2-0.1,3.9v8.2c0,3.3-0.6,5.2-2,6.5c-1.4,1.3-3.4,1.7-5.2,1.7c-1.7,0-3.6-0.4-4.7-1.2l0.6-2
			c0.9,0.6,2.4,1.1,4.2,1.1c2.6,0,4.6-1.4,4.6-5V605h-0.1c-0.8,1.3-2.3,2.4-4.5,2.4c-3.5,0-6-3-6-6.9c0-4.8,3.1-7.5,6.4-7.5
			c2.5,0,3.8,1.3,4.4,2.5H56l0.1-2.1H58.4z M55.7,598.8c0-0.4,0-0.8-0.1-1.2c-0.5-1.5-1.7-2.7-3.6-2.7c-2.5,0-4.2,2.1-4.2,5.4
			c0,2.8,1.4,5.1,4.2,5.1c1.6,0,3-1,3.6-2.6c0.1-0.4,0.2-0.9,0.2-1.4V598.8z"/>
		<path d="M74.4,603.5c0,1.5,0,2.8,0.1,3.9h-2.3l-0.1-2.3H72c-0.7,1.1-2.2,2.6-4.7,2.6c-2.2,0-4.9-1.2-4.9-6.2v-8.3H65v7.9
			c0,2.7,0.8,4.5,3.2,4.5c1.7,0,2.9-1.2,3.4-2.3c0.1-0.4,0.2-0.8,0.2-1.3v-8.7h2.6V603.5z"/>
		<path d="M78.7,586.6h2.6v20.8h-2.6V586.6z"/>
		<path d="M93.4,607.4l-0.2-1.8h-0.1c-0.8,1.1-2.3,2.1-4.3,2.1c-2.9,0-4.3-2-4.3-4.1c0-3.4,3-5.3,8.5-5.3v-0.3
			c0-1.2-0.3-3.3-3.2-3.3c-1.3,0-2.7,0.4-3.7,1.1l-0.6-1.7c1.2-0.8,2.9-1.3,4.7-1.3c4.3,0,5.4,3,5.4,5.8v5.3c0,1.2,0.1,2.4,0.2,3.4
			H93.4z M93.1,600.2c-2.8-0.1-6,0.4-6,3.2c0,1.7,1.1,2.5,2.4,2.5c1.8,0,3-1.2,3.4-2.4c0.1-0.3,0.1-0.6,0.1-0.8V600.2z"/>
		<path d="M99.7,597.6c0-1.7,0-3.1-0.1-4.4h2.3l0.1,2.8h0.1c0.6-1.9,2.2-3.1,3.9-3.1c0.3,0,0.5,0,0.7,0.1v2.4
			c-0.3-0.1-0.5-0.1-0.9-0.1c-1.8,0-3.1,1.4-3.5,3.3c-0.1,0.4-0.1,0.8-0.1,1.2v7.6h-2.5V597.6z"/>
	</g>
</g>
<g>
	<g>
		<line x1="161.8" y1="820.3" x2="1182.4" y2="820.3"/>
		<rect x="161.8" y="819.7" width="1020.6" height="1.2"/>
	</g>
	<g>
		<path d="M23.7,756.8c3.2,2.2,7.6,3.8,12.6,3.8c6.7,0,12.8-4,12.8-11.2c0-4.4-2.5-7.6-8.7-11.1c-7.6-4-11.8-8.8-11.8-15.2
			c0-10.5,9.1-17.4,20-17.4c5.7,0,10,1.8,12.1,3.2l-2.6,5.9c-1.8-1.1-5.5-2.8-10.3-2.7c-7.3,0-11.7,4.8-11.7,9.7c0,4.8,3,7.6,9.1,11
			c7.3,3.9,11.3,8.5,11.3,15.8c0,10.3-8.1,18.3-21.3,18.3c-6,0-11.8-1.9-14.2-4L23.7,756.8z"/>
		<path d="M105,740.2c0,13.1-9.3,26.7-23.5,26.7c-10.6,0-16.6-7.9-16.6-17.5c0-14,9.7-27,23.5-27C99.9,722.4,105,731.1,105,740.2z
			 M72.4,749.1c0,6.9,3.8,11.9,10,11.9c8.6,0,15.1-11.1,15.1-21c0-4.9-2.3-11.9-9.9-11.9C78.5,728.2,72.3,739.4,72.4,749.1z"/>
		<path d="M110.1,765.9l5.7-30.1c0.9-4.7,1.5-8.9,1.9-12.4h6.4l-1.1,8h0.3c4-5.9,9.3-9,14.9-9c6.5,0,9.6,4.1,9.9,9.5
			c3.8-6.1,9.2-9.4,15.6-9.5c4.9,0,10.3,3.2,10.3,11.2c0,2-0.3,4.8-0.7,7.2l-4.7,25.1h-7.1l4.6-24.5c0.4-1.6,0.6-3.8,0.6-5.5
			c0-4.5-1.7-7.4-6.4-7.4c-5.3,0-11.5,6.1-13.3,15.6l-4.1,21.8h-7l4.7-24.9c0.4-1.8,0.5-3.5,0.5-5.2c0-3.6-1-7.3-6.3-7.3
			c-5.4,0-11.9,7-13.6,16.1l-4,21.3H110.1z"/>
		<path d="M211.7,763.4c-3.2,1.8-8.3,3.3-14.1,3.3c-11.2,0-16.2-7.6-16.2-17c0-12.8,9.5-27.3,23.2-27.3c8.1,0,12.5,4.8,12.5,10.9
			c0,11.2-12.6,14.1-28.3,13.9c-0.4,1.8-0.1,5.8,0.9,8.1c1.7,3.8,5.1,5.7,9.5,5.7c5,0,8.8-1.6,11.4-3L211.7,763.4z M203.6,728.1
			c-6.9,0-12.1,6.8-13.9,13.4c11.4,0.1,20.4-1.4,20.4-8C210.1,730.1,207.5,728.1,203.6,728.1z"/>
		<path d="M237.2,758.5c2,1.2,5.7,2.6,9.1,2.6c4.9,0,8.1-3.2,8.1-6.9c0-3.3-1.5-5.4-5.9-7.8c-4.9-2.7-7.6-6.5-7.6-10.8
			c0-7.5,6.4-13.2,15.4-13.2c3.9,0,7.3,1.1,8.9,2.1l-2,5.5c-1.5-0.9-4.2-1.9-7.4-1.9c-4.4,0-7.6,2.7-7.6,6.4c0,3.1,2,5,5.8,7.1
			c4.7,2.7,8,6.4,8,11.2c0,9-7.3,14-16.2,14c-4.6,0-8.6-1.4-10.5-2.9L237.2,758.5z"/>
		<path d="M297.8,765.9c0-2.5,0.4-6.6,1-11h-0.2c-4.7,8.8-10.4,11.9-16.5,11.9c-7.5,0-12.2-6-12.2-14.1c0-14.8,10.9-30.4,29.4-30.4
			c4,0,8.5,0.7,11.4,1.7l-4.3,22.1c-1.4,7.4-2,14.9-1.8,19.7H297.8z M302.5,728.8c-1.1-0.3-2.6-0.6-5.1-0.6c-11,0-19.9,11.5-20,23.3
			c0,4.7,1.7,9.4,7.3,9.4c6.1,0,13.3-7.9,15.4-19.2L302.5,728.8z"/>
		<path d="M315.4,765.9l5.7-30.1c0.9-4.7,1.5-8.9,1.9-12.4h6.4l-1.1,8h0.3c4-5.9,9.3-9,14.9-9c6.5,0,9.6,4.1,9.9,9.5
			c3.8-6.1,9.2-9.4,15.6-9.5c4.9,0,10.3,3.2,10.3,11.2c0,2-0.3,4.8-0.7,7.2l-4.7,25.1h-7.1l4.6-24.5c0.4-1.6,0.6-3.8,0.6-5.5
			c0-4.5-1.7-7.4-6.4-7.4c-5.3,0-11.5,6.1-13.3,15.6l-4.1,21.8h-7l4.7-24.9c0.4-1.8,0.5-3.5,0.5-5.2c0-3.6-1-7.3-6.3-7.3
			c-5.4,0-11.9,7-13.6,16.1l-4,21.3H315.4z"/>
		<path d="M382.6,783.3l8.5-44.8c0.9-5.1,1.8-10.8,2.4-15.1h6.7l-1.2,8h0.2c3.9-5.5,9.5-9,15.3-9c9.2,0,13.1,7.6,13.1,15.4
			c0,14.9-10.7,29.1-24.9,29.1c-4.6,0-7.6-1-9.2-1.9h-0.2l-3.4,18.4H382.6z M394.5,758.8c1.8,1.5,4.7,2.4,8.1,2.4
			c9.4,0,17.3-11.7,17.3-22.8c0-4.5-2-9.8-8.2-9.8c-5.7,0-12.9,6.6-15.1,18.4L394.5,758.8z"/>
		<path d="M432.5,765.9l11.9-62.3h7.3l-11.9,62.3H432.5z"/>
		<path d="M483.2,763.4c-3.2,1.8-8.3,3.3-14.1,3.3c-11.2,0-16.2-7.6-16.2-17c0-12.8,9.5-27.3,23.2-27.3c8.1,0,12.5,4.8,12.5,10.9
			c0,11.2-12.6,14.1-28.3,13.9c-0.4,1.8-0.1,5.8,0.9,8.1c1.7,3.8,5.1,5.7,9.5,5.7c5,0,8.8-1.6,11.4-3L483.2,763.4z M475.1,728.1
			c-6.9,0-12.1,6.8-13.9,13.4c11.4,0.1,20.4-1.4,20.4-8C481.6,730.1,479,728.1,475.1,728.1z"/>
		<path d="M527.4,712l-2.2,11.4h10.2l-1.1,5.7h-10.2l-4,20.6c-0.4,2.4-0.8,4.6-0.8,6.8c0,2.5,1.2,4,4,4c1.2,0,2.5-0.1,3.4-0.3
			l-0.4,5.7c-1.3,0.5-3.5,0.8-5.6,0.8c-6.5,0-9-4-9-8.3c0-2.5,0.3-4.9,0.9-8l4.2-21.5h-6.1l1.1-5.7h6.1l1.8-9.6L527.4,712z"/>
		<path d="M566.1,763.4c-3.2,1.8-8.3,3.3-14.1,3.3c-11.2,0-16.2-7.6-16.2-17c0-12.8,9.5-27.3,23.2-27.3c8.1,0,12.5,4.8,12.5,10.9
			c0,11.2-12.6,14.1-28.3,13.9c-0.4,1.8-0.1,5.8,0.9,8.1c1.7,3.8,5.1,5.7,9.5,5.7c5,0,8.8-1.6,11.4-3L566.1,763.4z M558,728.1
			c-6.9,0-12.1,6.8-13.9,13.4c11.4,0.1,20.4-1.4,20.4-8C564.5,730.1,561.9,728.1,558,728.1z"/>
		<path d="M586.2,723.4l4.1,9.3c1.1,2.7,2,4.8,2.8,6.8h0.3c1.7-2.4,2.5-3.8,4.7-6.4l7.8-9.7h8.4l-17.9,20.7l10,21.8h-7.9l-4.3-9.6
			c-1.4-3.2-2-4.8-3.1-7.6H591c-1.3,2-2.5,4-4.4,6.5l-8.6,10.6h-8.4l18.6-21.9l-9.8-20.6H586.2z"/>
		<path d="M633.9,712l-2.2,11.4h10.2l-1.1,5.7h-10.2l-4,20.6c-0.4,2.4-0.8,4.6-0.8,6.8c0,2.5,1.2,4,4,4c1.2,0,2.5-0.1,3.4-0.3
			l-0.4,5.7c-1.3,0.5-3.5,0.8-5.6,0.8c-6.5,0-9-4-9-8.3c0-2.5,0.3-4.9,0.9-8l4.2-21.5h-6.1l1.1-5.7h6.1l1.8-9.6L633.9,712z"/>
		<path d="M658.8,775.6c2.5,1.6,6.8,2.8,11.2,2.8c7.1,0,12.7-3.7,15.3-15.2l1.4-6.3h-0.3c-3.7,6.1-8.9,9-14.8,9
			c-8.5,0-12.9-7.2-12.9-14.8c-0.1-14.4,10.5-28.7,27-28.7c4.9,0,10.3,1.4,13.6,3l-6.5,35.1c-1.8,9-4.1,15.2-8.6,19
			c-4.2,3.7-9.9,4.7-14.8,4.7c-5.2,0-10-1.2-12.7-3L658.8,775.6z M691.3,729.7c-1.3-0.6-4-1.4-7-1.4c-10.6,0-17.9,11.1-18,21.6
			c0,4.7,1.7,10.2,8.2,10.2c6.2,0,12.6-7.9,14.1-16.2L691.3,729.7z"/>
		<path d="M745.1,740.2c0,13.1-9.3,26.7-23.5,26.7c-10.6,0-16.6-7.9-16.6-17.5c0-14,9.7-27,23.5-27
			C740,722.4,745.1,731.1,745.1,740.2z M712.5,749.1c0,6.9,3.8,11.9,10,11.9c8.6,0,15.1-11.1,15.1-21c0-4.9-2.3-11.9-9.9-11.9
			C718.6,728.2,712.4,739.4,712.5,749.1z"/>
		<path d="M781.1,763.4c-3.2,1.8-8.3,3.3-14.1,3.3c-11.2,0-16.2-7.6-16.2-17c0-12.8,9.5-27.3,23.2-27.3c8.1,0,12.5,4.8,12.5,10.9
			c0,11.2-12.6,14.1-28.3,13.9c-0.4,1.8-0.1,5.8,0.9,8.1c1.7,3.8,5.1,5.7,9.5,5.7c5,0,8.8-1.6,11.4-3L781.1,763.4z M773,728.1
			c-6.9,0-12.1,6.8-13.9,13.4c11.4,0.1,20.4-1.4,20.4-8C779.5,730.1,776.9,728.1,773,728.1z"/>
		<path d="M790.6,758.5c2,1.2,5.7,2.6,9.1,2.6c4.9,0,8.1-3.2,8.1-6.9c0-3.3-1.5-5.4-5.9-7.8c-4.9-2.7-7.6-6.5-7.6-10.8
			c0-7.5,6.4-13.2,15.4-13.2c3.9,0,7.3,1.1,8.9,2.1l-2,5.5c-1.5-0.9-4.2-1.9-7.4-1.9c-4.4,0-7.6,2.7-7.6,6.4c0,3.1,2,5,5.8,7.1
			c4.7,2.7,8,6.4,8,11.2c0,9-7.3,14-16.2,14c-4.6,0-8.6-1.4-10.5-2.9L790.6,758.5z"/>
		<path d="M839,765.9l11.9-62.3h7.3l-5.3,27.4h0.2c3.6-5.2,8.8-8.5,15.2-8.5c4.8,0,10.5,3,10.5,11.4c0,2.3-0.3,5-0.7,7.2l-4.7,24.9
			H866l4.7-24.5c0.3-1.6,0.5-3.5,0.5-5.9c0-4-1.8-7-6.6-7c-5.6,0-12.7,6.6-14.5,16.2l-4,21.3H839z"/>
		<path d="M916.5,763.4c-3.2,1.8-8.3,3.3-14.1,3.3c-11.2,0-16.2-7.6-16.2-17c0-12.8,9.5-27.3,23.2-27.3c8.1,0,12.5,4.8,12.5,10.9
			c0,11.2-12.6,14.1-28.3,13.9c-0.4,1.8-0.1,5.8,0.9,8.1c1.7,3.8,5.1,5.7,9.5,5.7c5,0,8.8-1.6,11.4-3L916.5,763.4z M908.4,728.1
			c-6.9,0-12.1,6.8-13.9,13.4c11.4,0.1,20.4-1.4,20.4-8C914.9,730.1,912.3,728.1,908.4,728.1z"/>
		<path d="M925.6,765.9l5.2-27.4c1.1-5.5,1.8-11.2,2.2-15.1h6.4c-0.4,3-0.7,6-1.1,9.2h0.3c2.7-5.8,7.3-10.2,13-10.2
			c0.6,0,1.5,0.1,2,0.2l-1.4,7.2c-0.4-0.1-1.1-0.2-1.9-0.2c-6.3,0-11.9,7.6-13.8,17.6l-3.5,18.7H925.6z"/>
		<path d="M983.7,763.4c-3.2,1.8-8.3,3.3-14.1,3.3c-11.2,0-16.2-7.6-16.2-17c0-12.8,9.5-27.3,23.2-27.3c8.1,0,12.5,4.8,12.5,10.9
			c0,11.2-12.6,14.1-28.3,13.9c-0.4,1.8-0.1,5.8,0.9,8.1c1.7,3.8,5.1,5.7,9.5,5.7c5,0,8.8-1.6,11.4-3L983.7,763.4z M975.6,728.1
			c-6.9,0-12.1,6.8-13.9,13.4c11.4,0.1,20.4-1.4,20.4-8C982.1,730.1,979.5,728.1,975.6,728.1z"/>
		<path d="M995.6,761.7c0-3.2,2.3-5.9,5.5-5.9c3,0,4.9,2.2,4.9,5.3c0,3.2-2.3,5.8-5.6,5.8C997.5,766.9,995.6,764.6,995.6,761.7z
			 M1024.9,761.7c0-3.2,2.3-5.9,5.5-5.9c3,0,4.9,2.2,4.9,5.3c0,3.2-2.3,5.8-5.5,5.8C1026.8,766.9,1024.9,764.6,1024.9,761.7z
			 M1054.2,761.7c0-3.2,2.3-5.9,5.5-5.9c3,0,4.9,2.2,4.9,5.3c0,3.2-2.3,5.8-5.6,5.8C1056.1,766.9,1054.2,764.6,1054.2,761.7z"/>
	</g>
	<g>
		<path d="M18.2,806.2V826h-2.5v-19.7H18.2z"/>
		<path d="M26.2,807.7v4.1h3.7v2h-3.7v7.6c0,1.8,0.5,2.8,1.9,2.8c0.7,0,1.2-0.1,1.5-0.2l0.1,1.9c-0.5,0.2-1.3,0.4-2.3,0.4
			c-1.2,0-2.2-0.4-2.8-1.1c-0.7-0.8-1-2-1-3.7v-7.7h-2.2v-2h2.2v-3.4L26.2,807.7z"/>
		<path d="M40.6,826l-0.2-1.8h-0.1c-0.8,1.1-2.3,2.1-4.3,2.1c-2.9,0-4.3-2-4.3-4.1c0-3.4,3-5.3,8.5-5.3v-0.3c0-1.2-0.3-3.3-3.2-3.3
			c-1.3,0-2.7,0.4-3.7,1.1l-0.6-1.7c1.2-0.8,2.9-1.3,4.7-1.3c4.3,0,5.4,3,5.4,5.8v5.3c0,1.2,0.1,2.4,0.2,3.4H40.6z M40.2,818.7
			c-2.8-0.1-6,0.4-6,3.2c0,1.7,1.1,2.5,2.4,2.5c1.8,0,3-1.2,3.4-2.4c0.1-0.3,0.1-0.6,0.1-0.8V818.7z"/>
		<path d="M46.9,805.2h2.6V826h-2.6V805.2z"/>
		<path d="M56.7,807.8c0,0.9-0.6,1.6-1.6,1.6c-0.9,0-1.6-0.7-1.6-1.6c0-0.9,0.7-1.6,1.6-1.6C56.1,806.2,56.7,806.9,56.7,807.8z
			 M53.8,826v-14.2h2.6V826H53.8z"/>
		<path d="M70.8,825.4c-0.7,0.4-2.2,0.8-4.1,0.8c-4.3,0-7.1-2.9-7.1-7.2c0-4.4,3-7.5,7.6-7.5c1.5,0,2.9,0.4,3.6,0.7l-0.6,2
			c-0.6-0.4-1.6-0.7-3-0.7c-3.3,0-5,2.4-5,5.4c0,3.3,2.1,5.3,4.9,5.3c1.5,0,2.4-0.4,3.2-0.7L70.8,825.4z"/>
	</g>
</g>
<g>
	<g>
		<line x1="161.8" y1="1041.7" x2="1182.4" y2="1041.7"/>
		<rect x="161.8" y="1041.1" width="1020.6" height="1.2"/>
	</g>
	<g>
		<path d="M26,974.5c3.5,2,8.8,3.8,14.3,3.8c6.9,0,10.8-3.2,10.8-8.1c0-4.5-3-7.1-10.5-9.8c-9.7-3.5-16-8.7-16-17.2
			c0-9.7,8.1-17,20.9-17c6.4,0,11.2,1.4,14.2,3l-2.6,8.7c-2.1-1.1-6.2-2.8-11.8-2.8c-6.8,0-9.8,3.7-9.8,7.1c0,4.6,3.4,6.7,11.3,9.7
			c10.3,3.9,15.3,9,15.3,17.6c0,9.5-7.2,17.7-22.5,17.7c-6.2,0-12.7-1.8-16-3.7L26,974.5z"/>
		<path d="M112.6,964.5c0,15.7-11.1,22.7-22,22.7c-12.1,0-21.4-8.3-21.4-22c0-14.1,9.2-22.7,22.1-22.7
			C104,942.5,112.6,951.5,112.6,964.5z M80.3,964.9c0,8.3,4,14.5,10.6,14.5c6.1,0,10.4-6.1,10.4-14.7c0-6.7-3-14.3-10.4-14.3
			C83.4,950.4,80.3,957.8,80.3,964.9z"/>
		<path d="M121.4,956.2c0-4.9-0.1-9-0.4-12.7h9.3l0.4,6.3h0.3c2.1-3.3,6-7.3,13.2-7.3c5.6,0,10,3.2,11.9,7.9h0.2
			c1.5-2.4,3.2-4.1,5.3-5.4c2.4-1.7,5.1-2.5,8.6-2.5c7.1,0,14.3,4.8,14.3,18.5v25.2h-10.5v-23.6c0-7.1-2.5-11.3-7.6-11.3
			c-3.7,0-6.4,2.6-7.6,5.7c-0.3,1.1-0.5,2.4-0.5,3.6v25.6h-10.5v-24.8c0-6-2.4-10.2-7.4-10.2c-4,0-6.8,3.2-7.7,6.1
			c-0.4,1.1-0.6,2.3-0.6,3.5v25.3h-10.5V956.2z"/>
		<path d="M203.5,967.9c0.3,7.7,6.3,11.1,13.2,11.1c5,0,8.6-0.7,11.9-1.9l1.6,7.5c-3.7,1.5-8.8,2.6-14.9,2.6c-13.9,0-22-8.5-22-21.6
			c0-11.9,7.2-23,20.9-23c13.9,0,18.4,11.4,18.4,20.8c0,2-0.2,3.6-0.4,4.6H203.5z M222.3,960.3c0.1-4-1.7-10.4-8.9-10.4
			c-6.7,0-9.5,6.1-9.9,10.4H222.3z"/>
		<path d="M258.9,976.3c2.5,1.5,7.1,3.1,11,3.1c4.7,0,6.8-1.9,6.8-4.7c0-2.9-1.8-4.4-7-6.2c-8.3-2.9-11.9-7.5-11.8-12.5
			c0-7.6,6.2-13.4,16.2-13.4c4.7,0,8.9,1.2,11.3,2.5l-2.1,7.6c-1.8-1.1-5.3-2.5-9-2.5c-3.9,0-6,1.8-6,4.5c0,2.7,2,4,7.5,6
			c7.7,2.8,11.3,6.8,11.4,13.1c0,7.7-6.1,13.3-17.4,13.3c-5.2,0-9.8-1.2-13-3L258.9,976.3z"/>
		<path d="M320.1,986.2l-0.7-4.7h-0.3c-2.6,3.3-7.1,5.7-12.6,5.7c-8.6,0-13.4-6.2-13.4-12.7c0-10.8,9.6-16.2,25.4-16.2v-0.7
			c0-2.8-1.1-7.5-8.7-7.5c-4.2,0-8.6,1.3-11.5,3.2l-2.1-7c3.2-1.9,8.7-3.8,15.5-3.8c13.7,0,17.7,8.7,17.7,18V976
			c0,3.9,0.2,7.6,0.6,10.3H320.1z M318.7,965.3c-7.6-0.2-14.9,1.5-14.9,8c0,4.2,2.7,6.1,6.1,6.1c4.3,0,7.5-2.8,8.4-5.9
			c0.3-0.8,0.4-1.7,0.4-2.4V965.3z"/>
		<path d="M340.6,956.2c0-4.9-0.1-9-0.4-12.7h9.3l0.4,6.3h0.3c2.1-3.3,6-7.3,13.2-7.3c5.6,0,10,3.2,11.9,7.9h0.2
			c1.5-2.4,3.2-4.1,5.3-5.4c2.4-1.7,5.1-2.5,8.6-2.5c7.1,0,14.3,4.8,14.3,18.5v25.2h-10.5v-23.6c0-7.1-2.5-11.3-7.6-11.3
			c-3.7,0-6.4,2.6-7.6,5.7c-0.3,1.1-0.5,2.4-0.5,3.6v25.6h-10.5v-24.8c0-6-2.4-10.2-7.4-10.2c-4,0-6.8,3.2-7.7,6.1
			c-0.4,1.1-0.6,2.3-0.6,3.5v25.3h-10.5V956.2z"/>
		<path d="M415.1,957.7c0-5.6-0.2-10.2-0.4-14.2h9.5l0.5,6.6h0.2c3.2-4.8,8.2-7.6,14.7-7.6c9.8,0,18,8.4,18,21.8
			c0,15.5-9.7,22.9-19.5,22.9c-5.4,0-9.8-2.3-12-5.7h-0.2v22.1h-10.8V957.7z M425.9,968.3c0,1.1,0.1,2,0.4,3
			c1.1,4.4,4.9,7.6,9.5,7.6c6.8,0,10.9-5.7,10.9-14.1c0-7.6-3.7-13.7-10.6-13.7c-4.5,0-8.6,3.2-9.7,8c-0.3,0.9-0.4,1.8-0.4,2.7
			V968.3z"/>
		<path d="M466.4,923.9h10.9v62.3h-10.9V923.9z"/>
		<path d="M496.7,967.9c0.3,7.7,6.3,11.1,13.2,11.1c5,0,8.6-0.7,11.9-1.9l1.6,7.5c-3.7,1.5-8.8,2.6-14.9,2.6c-13.9,0-22-8.5-22-21.6
			c0-11.9,7.2-23,20.9-23c13.9,0,18.4,11.4,18.4,20.8c0,2-0.2,3.6-0.4,4.6H496.7z M515.4,960.3c0.1-4-1.7-10.4-8.9-10.4
			c-6.7,0-9.5,6.1-9.9,10.4H515.4z"/>
		<path d="M564.9,931.3v12.2h10.3v8.1h-10.3v18.9c0,5.2,1.4,7.9,5.5,7.9c1.8,0,3.2-0.3,4.2-0.5l0.2,8.3c-1.6,0.6-4.4,1.1-7.8,1.1
			c-4,0-7.3-1.3-9.3-3.5c-2.3-2.5-3.3-6.3-3.3-11.9v-20.1h-6.1v-8.1h6.1v-9.7L564.9,931.3z"/>
		<path d="M590.4,967.9c0.3,7.7,6.3,11.1,13.2,11.1c5,0,8.6-0.7,11.9-1.9l1.6,7.5c-3.7,1.5-8.8,2.6-14.9,2.6c-13.9,0-22-8.5-22-21.6
			c0-11.9,7.2-23,20.9-23c13.9,0,18.4,11.4,18.4,20.8c0,2-0.2,3.6-0.4,4.6H590.4z M609.2,960.3c0.1-4-1.7-10.4-8.9-10.4
			c-6.7,0-9.5,6.1-9.9,10.4H609.2z"/>
		<path d="M634.6,943.5l5.1,8.1c1.4,2.3,2.6,4.4,3.9,6.6h0.3c1.2-2.4,2.5-4.6,3.7-6.8l4.7-7.9H664L649.7,964l14.6,22.2h-12.2
			l-5.3-8.5c-1.4-2.3-2.6-4.6-3.9-6.9h-0.2c-1.2,2.5-2.5,4.6-3.9,6.9l-4.9,8.5h-11.9l14.8-21.8l-14.3-21H634.6z"/>
		<path d="M684.3,931.3v12.2h10.3v8.1h-10.3v18.9c0,5.2,1.4,7.9,5.5,7.9c1.8,0,3.2-0.3,4.2-0.5l0.2,8.3c-1.6,0.6-4.4,1.1-7.8,1.1
			c-4,0-7.3-1.3-9.3-3.5c-2.3-2.5-3.3-6.3-3.3-11.9v-20.1h-6.1v-8.1h6.1v-9.7L684.3,931.3z"/>
		<path d="M760,943.5c-0.2,2.9-0.4,6.4-0.4,12.3V980c0,9-1.8,15.4-6.3,19.4c-4.5,4-10.6,5.2-16.5,5.2c-5.4,0-11.2-1.1-14.9-3.4
			l2.4-8.2c2.7,1.6,7.3,3.2,12.5,3.2c7,0,12.3-3.7,12.3-12.9v-3.7h-0.2c-2.5,3.8-6.8,6.3-12.5,6.3c-10.6,0-18.2-8.8-18.2-20.9
			c0-14.1,9.1-22.6,19.4-22.6c6.5,0,10.4,3.2,12.4,6.7h0.2l0.4-5.7H760z M748.9,960.6c0-1-0.1-2-0.4-2.9c-1.1-4-4.2-6.9-8.8-6.9
			c-6.1,0-10.5,5.3-10.5,14c0,7.3,3.7,13.2,10.5,13.2c4,0,7.6-2.6,8.8-6.5c0.3-1.1,0.4-2.6,0.4-3.9V960.6z"/>
		<path d="M811.9,964.5c0,15.7-11.1,22.7-22,22.7c-12.1,0-21.4-8.3-21.4-22c0-14.1,9.2-22.7,22.1-22.7
			C803.4,942.5,811.9,951.5,811.9,964.5z M779.7,964.9c0,8.3,4,14.5,10.6,14.5c6.1,0,10.5-6.1,10.5-14.7c0-6.7-3-14.3-10.4-14.3
			C782.8,950.4,779.7,957.8,779.7,964.9z"/>
		<path d="M828.4,967.9c0.3,7.7,6.3,11.1,13.2,11.1c5,0,8.6-0.7,11.9-1.9l1.6,7.5c-3.7,1.5-8.8,2.6-14.9,2.6c-13.9,0-22-8.5-22-21.6
			c0-11.9,7.2-23,20.9-23c13.9,0,18.4,11.4,18.4,20.8c0,2-0.2,3.6-0.4,4.6H828.4z M847.2,960.3c0.1-4-1.7-10.4-8.9-10.4
			c-6.7,0-9.5,6.1-9.9,10.4H847.2z"/>
		<path d="M865.6,976.3c2.5,1.5,7.1,3.1,11,3.1c4.7,0,6.8-1.9,6.8-4.7c0-2.9-1.8-4.4-7-6.2c-8.3-2.9-11.9-7.5-11.8-12.5
			c0-7.6,6.2-13.4,16.2-13.4c4.7,0,8.9,1.2,11.3,2.5l-2.1,7.6c-1.8-1.1-5.3-2.5-9-2.5c-3.9,0-6,1.8-6,4.5c0,2.7,2,4,7.5,6
			c7.7,2.8,11.3,6.8,11.4,13.1c0,7.7-6.1,13.3-17.4,13.3c-5.2,0-9.8-1.2-13-3L865.6,976.3z"/>
		<path d="M920.9,923.9h10.9v25.5h0.2c1.3-2,3.1-3.7,5.4-4.9c2.1-1.2,4.7-1.9,7.4-1.9c7.3,0,14.9,4.8,14.9,18.5v25.2h-10.8v-24
			c0-6.2-2.3-10.9-8.3-10.9c-4.2,0-7.2,2.8-8.3,6.1c-0.4,0.9-0.4,2-0.4,3.2v25.6h-10.9V923.9z"/>
		<path d="M978.8,967.9c0.3,7.7,6.3,11.1,13.2,11.1c5,0,8.6-0.7,11.9-1.9l1.6,7.5c-3.7,1.5-8.8,2.6-14.9,2.6c-13.9,0-22-8.5-22-21.6
			c0-11.9,7.2-23,20.9-23c13.9,0,18.4,11.4,18.4,20.8c0,2-0.2,3.6-0.4,4.6H978.8z M997.5,960.3c0.1-4-1.7-10.4-8.9-10.4
			c-6.7,0-9.5,6.1-9.9,10.4H997.5z"/>
		<path d="M1016.4,957.3c0-5.8-0.1-9.9-0.4-13.8h9.4l0.4,8.2h0.4c2.1-6.1,7.1-9.1,11.7-9.1c1.1,0,1.7,0.1,2.5,0.3V953
			c-0.9-0.2-1.8-0.4-3.2-0.4c-5.2,0-8.7,3.3-9.7,8.2c-0.2,1-0.4,2.1-0.4,3.3v22.1h-10.8V957.3z"/>
		<path d="M1054.5,967.9c0.3,7.7,6.3,11.1,13.2,11.1c5,0,8.6-0.7,11.9-1.9l1.6,7.5c-3.7,1.5-8.8,2.6-14.9,2.6
			c-13.9,0-22-8.5-22-21.6c0-11.9,7.2-23,20.9-23c13.9,0,18.4,11.4,18.4,20.8c0,2-0.2,3.6-0.4,4.6H1054.5z M1073.3,960.3
			c0.1-4-1.7-10.4-8.9-10.4c-6.7,0-9.5,6.1-9.9,10.4H1073.3z"/>
		<path d="M1093.2,980.3c0-4,2.7-6.9,6.7-6.9c4,0,6.6,2.8,6.7,6.9c0,4-2.7,6.9-6.8,6.9C1095.9,987.2,1093.1,984.2,1093.2,980.3z
			 M1122.4,980.3c0-4,2.8-6.9,6.7-6.9c4,0,6.7,2.8,6.7,6.9c0,4-2.6,6.9-6.7,6.9C1125.1,987.2,1122.4,984.2,1122.4,980.3z
			 M1151.7,980.3c0-4,2.7-6.9,6.7-6.9c4,0,6.6,2.8,6.7,6.9c0,4-2.6,6.9-6.7,6.9C1154.5,987.2,1151.7,984.2,1151.7,980.3z"/>
	</g>
	<g>
		<path d="M15.3,1047.5c1.1,0.7,2.8,1.3,4.6,1.3c2.6,0,4.1-1.4,4.1-3.4c0-1.8-1.1-2.9-3.7-3.9c-3.2-1.1-5.2-2.8-5.2-5.6
			c0-3.1,2.5-5.4,6.4-5.4c2,0,3.5,0.5,4.4,1l-0.7,2.1c-0.6-0.4-2-0.9-3.8-0.9c-2.7,0-3.7,1.6-3.7,3c0,1.8,1.2,2.8,3.9,3.8
			c3.3,1.3,5,2.9,5,5.8c0,3-2.3,5.7-6.9,5.7c-1.9,0-4-0.6-5-1.3L15.3,1047.5z"/>
		<path d="M31.6,1044c0.1,3.5,2.3,4.9,4.9,4.9c1.8,0,3-0.3,3.9-0.7l0.4,1.8c-0.9,0.4-2.5,0.9-4.7,0.9c-4.4,0-7-2.9-7-7.1
			s2.5-7.6,6.7-7.6c4.6,0,5.9,4.1,5.9,6.7c0,0.5-0.1,0.9-0.1,1.2H31.6z M39.2,1042.2c0-1.6-0.7-4.2-3.6-4.2c-2.6,0-3.8,2.4-4,4.2
			H39.2z"/>
		<path d="M44.9,1040.3c0-1.5,0-2.7-0.1-3.8H47l0.1,2.3h0.1c0.8-1.3,2.1-2.6,4.5-2.6c1.9,0,3.4,1.2,4,2.8h0.1c0.4-0.8,1-1.4,1.6-1.8
			c0.8-0.6,1.8-1,3.1-1c1.9,0,4.7,1.2,4.7,6.2v8.3h-2.5v-8c0-2.7-1-4.4-3.1-4.4c-1.5,0-2.6,1.1-3,2.3c-0.1,0.4-0.2,0.8-0.2,1.3v8.8
			h-2.5v-8.5c0-2.3-1-3.9-3-3.9c-1.6,0-2.8,1.3-3.2,2.6c-0.1,0.4-0.2,0.8-0.2,1.3v8.6h-2.5V1040.3z"/>
		<path d="M72.2,1032.5c0,0.9-0.6,1.6-1.6,1.6c-0.9,0-1.6-0.7-1.6-1.6c0-0.9,0.7-1.6,1.6-1.6C71.6,1030.9,72.2,1031.6,72.2,1032.5z
			 M69.3,1050.7v-14.2h2.6v14.2H69.3z"/>
		<path d="M76.1,1050.7c0.1-1,0.1-2.4,0.1-3.7v-17.1h2.5v8.9h0.1c0.9-1.6,2.5-2.6,4.8-2.6c3.5,0,6,2.9,6,7.2c0,5.1-3.2,7.6-6.4,7.6
			c-2.1,0-3.7-0.8-4.7-2.7h-0.1l-0.1,2.3H76.1z M78.7,1045c0,0.3,0.1,0.6,0.1,0.9c0.5,1.8,2,3,3.9,3c2.7,0,4.3-2.2,4.3-5.4
			c0-2.8-1.5-5.3-4.2-5.3c-1.8,0-3.4,1.2-3.9,3.2c-0.1,0.3-0.1,0.6-0.1,1.1V1045z"/>
		<path d="M105.7,1043.4c0,5.2-3.6,7.5-7.1,7.5c-3.8,0-6.8-2.8-6.8-7.3c0-4.7,3.1-7.5,7-7.5C102.9,1036.2,105.7,1039.1,105.7,1043.4
			z M94.4,1043.6c0,3.1,1.8,5.4,4.3,5.4c2.5,0,4.3-2.3,4.3-5.5c0-2.4-1.2-5.4-4.2-5.4S94.4,1040.9,94.4,1043.6z"/>
		<path d="M108.9,1029.9h2.6v20.8h-2.6V1029.9z"/>
		<path d="M128.1,1029.9v17.1c0,1.3,0,2.7,0.1,3.7h-2.3l-0.1-2.5h-0.1c-0.8,1.6-2.5,2.8-4.8,2.8c-3.4,0-6.1-2.9-6.1-7.2
			c0-4.7,2.9-7.6,6.4-7.6c2.2,0,3.6,1,4.3,2.2h0.1v-8.5H128.1z M125.5,1042.2c0-0.3,0-0.8-0.1-1.1c-0.4-1.6-1.8-3-3.7-3
			c-2.7,0-4.2,2.3-4.2,5.5c0,2.9,1.4,5.2,4.2,5.2c1.7,0,3.3-1.1,3.8-3.1c0.1-0.4,0.1-0.7,0.1-1.1V1042.2z"/>
	</g>
</g>
<g>
	<g>
		<line x1="204.7" y1="1262.9" x2="1182.4" y2="1262.9"/>
		<rect x="204.7" y="1262.3" width="977.7" height="1.2"/>
	</g>
	<g>
		<path d="M24,1199.8c3.3,2.2,8.2,3.8,13.3,3.8c5.7,0,11-3.1,11-8.8c0-3.9-2.5-6.5-8.3-9.6c-6.8-3.7-12-8.4-12-15.5
			c0-11.3,9.8-18.4,21.8-18.4c6.6,0,10.9,1.7,13.2,3l-3.3,8.5c-1.9-1.1-5.9-2.7-10.7-2.6c-6.5,0-10.2,3.8-10.2,7.7
			c0,4,3.3,6.4,8.9,9.6c7.2,3.8,11.5,8.5,11.5,15.7c0,11.9-9.6,19.1-22.8,19.1c-7.2,0-13.1-2-15.7-4.1L24,1199.8z"/>
		<path d="M108.8,1185.5c0,14.5-10.2,27-24.8,27c-10.8,0-17.5-7.5-17.5-17.7c0-14.5,10.1-27,24.7-27
			C102.7,1167.7,108.8,1176,108.8,1185.5z M77.1,1194.5c0,5.9,3.2,10,8.3,10c7.6,0,12.7-10.5,12.7-19.1c0-4.4-1.9-9.8-8.2-9.8
			C81.8,1175.6,77.1,1186.5,77.1,1194.5z"/>
		<path d="M113.2,1211.5l5.4-29.5c1-5.1,1.7-9.6,2.1-13.3h8.9l-0.9,7.5h0.1c4-5.7,9.3-8.4,14.8-8.4c6.7,0,9.7,4.2,10.1,8.8
			c3.8-5.9,9.2-8.7,15.1-8.8c5.9,0,10.4,3.8,10.4,11.4c0,1.8-0.4,5-0.7,7.3l-4.7,25h-9.9l4.5-23.9c0.3-1.8,0.6-3.7,0.6-5.4
			c0-3.6-1.5-6.1-5.3-6.1c-4.7,0-9.8,5.9-11.5,14.9l-3.9,20.5h-9.8l4.6-24.2c0.4-1.8,0.5-3.4,0.5-5c0-3.2-1-6.1-5.1-6.1
			c-4.7,0-10.2,6.4-11.8,15.1l-3.7,20.3H113.2z"/>
		<path d="M218.8,1209c-4.2,2.2-9.9,3.3-15.1,3.3c-11.9,0-17.6-7.2-17.6-17.7c0-12.9,9.5-27,24.2-27c8.4,0,13.8,4.9,13.8,12
			c0,11-11.5,14.5-28,14.1c-0.2,1.5,0.2,4.4,1.1,6.1c1.7,2.9,4.7,4.4,8.8,4.4c4.8,0,8.7-1.2,11.8-2.8L218.8,1209z M209.1,1175.4
			c-6.4,0-10.6,5.7-11.9,10.9c10.5,0.2,17.3-1.3,17.3-6.4C214.5,1177.1,212.3,1175.4,209.1,1175.4z"/>
		<path d="M244.5,1201.9c2.2,1.2,6.4,2.9,10.3,2.9c4.1-0.1,6.6-2.5,6.6-5.3c0-2.7-1.4-4.4-5.6-6.6c-4.9-2.5-8.4-6.2-8.4-11.2
			c0-8.3,7.2-14.1,17.3-14.1c4.5,0,8.2,1.1,10.1,2.2l-2.6,7.4c-1.6-0.9-4.5-1.9-8-1.9c-3.9,0-6.5,2.1-6.5,5c0,2.4,1.9,4,5.5,5.9
			c4.7,2.5,8.9,6.1,8.9,11.5c0,9.4-7.9,14.6-18.2,14.6c-5,0-9.7-1.4-11.9-3.1L244.5,1201.9z"/>
		<path d="M306.4,1211.5c0.1-2.5,0.4-6,0.8-9.7h-0.3c-4.2,7.9-9.8,10.6-15.3,10.6c-7.6,0-12.6-6-12.6-14.6
			c0-14.6,10.2-30.1,30.1-30.1c4.7,0,9.7,0.9,12.9,1.9l-4.4,22.3c-1.2,6.4-1.9,14.4-1.8,19.5H306.4z M310.6,1176.1
			c-1.1-0.3-2.4-0.4-4.2-0.4c-9.5,0-16.8,10.6-16.8,20.4c0,4.5,1.7,8.2,6.1,8.2c4.7,0,10.5-6,12.6-16.9L310.6,1176.1z"/>
		<path d="M325.9,1211.5l5.4-29.5c1-5.1,1.7-9.6,2.1-13.3h8.9l-0.9,7.5h0.1c4-5.7,9.3-8.4,14.8-8.4c6.7,0,9.7,4.2,10.1,8.8
			c3.8-5.9,9.2-8.7,15.1-8.8c5.9,0,10.4,3.8,10.4,11.4c0,1.8-0.4,5-0.7,7.3l-4.7,25h-9.9l4.5-23.9c0.3-1.8,0.6-3.7,0.6-5.4
			c0-3.6-1.5-6.1-5.3-6.1c-4.7,0-9.8,5.9-11.5,14.9l-3.9,20.5h-9.8l4.6-24.2c0.4-1.8,0.5-3.4,0.5-5c0-3.2-1-6.1-5.1-6.1
			c-4.7,0-10.2,6.4-11.8,15.1l-3.7,20.3H325.9z"/>
		<path d="M394.4,1228.9l8.3-44.3c1-5.1,1.9-11.5,2.5-15.9h9.2l-1,7h0.2c3.7-5.1,9-8,14.5-8c9.2,0,13.5,7.6,13.5,15.9
			c0,14.9-10.4,28.8-24.9,28.8c-4,0-6.9-0.9-8.5-1.8H408l-3.4,18.3H394.4z M409.7,1202.4c1.6,1.3,3.9,2.1,6.8,2.1
			c7.9,0,14.4-10.5,14.4-20.1c0-4-1.8-8.3-6.8-8.3c-5.2,0-10.8,5.9-12.6,15.9L409.7,1202.4z"/>
		<path d="M445.9,1211.5l11.9-62.3H468l-11.9,62.3H445.9z"/>
		<path d="M501.3,1209c-4.2,2.2-9.9,3.3-15.1,3.3c-11.9,0-17.6-7.2-17.6-17.7c0-12.9,9.5-27,24.2-27c8.4,0,13.8,4.9,13.8,12
			c0,11-11.5,14.5-28,14.1c-0.2,1.5,0.2,4.4,1.1,6.1c1.7,2.9,4.7,4.4,8.8,4.4c4.8,0,8.7-1.2,11.8-2.8L501.3,1209z M491.6,1175.4
			c-6.4,0-10.6,5.7-11.9,10.9c10.5,0.2,17.3-1.3,17.3-6.4C497,1177.1,494.8,1175.4,491.6,1175.4z"/>
		<path d="M547.8,1156.9l-2.2,11.8h9.7l-1.6,7.9h-9.6l-3.4,17.3c-0.4,2-0.7,4.2-0.7,6.1c0,2.3,1.1,3.8,3.8,3.8c1.2,0,2.5,0,3.5-0.2
			l-1,8c-1.5,0.5-4.2,0.9-6.7,0.9c-7,0-10.2-3.9-10.2-8.8c0-2.5,0.3-4.8,1-8l3.7-19.1h-5.8l1.5-7.9h5.8l1.8-9.2L547.8,1156.9z"/>
		<path d="M588.2,1209c-4.2,2.2-9.9,3.3-15.1,3.3c-11.9,0-17.6-7.2-17.6-17.7c0-12.9,9.5-27,24.2-27c8.4,0,13.8,4.9,13.8,12
			c0,11-11.5,14.5-28,14.1c-0.2,1.5,0.2,4.4,1.1,6.1c1.7,2.9,4.7,4.4,8.8,4.4c4.8,0,8.7-1.2,11.8-2.8L588.2,1209z M578.5,1175.4
			c-6.4,0-10.6,5.7-11.9,10.9c10.5,0.2,17.3-1.3,17.3-6.4C583.9,1177.1,581.7,1175.4,578.5,1175.4z"/>
		<path d="M611,1168.7l3.3,7.7c1.2,3.1,2,5.3,2.7,7h0.3c1.6-2.3,2.7-4,4.7-6.7l6.1-8.1h11.8l-18.1,20.8l10,22h-11.2l-3.4-8.1
			c-1.3-3.2-2-5.1-2.9-7.7h-0.3c-1.2,2-2.5,4.1-4.3,6.9l-6.8,8.9h-11.8l18.6-22l-10-20.7H611z"/>
		<path d="M661.4,1156.9l-2.2,11.8h9.7l-1.6,7.9h-9.6l-3.4,17.3c-0.4,2-0.7,4.2-0.7,6.1c0,2.3,1.1,3.8,3.8,3.8c1.2,0,2.5,0,3.5-0.2
			l-1,8c-1.5,0.5-4.2,0.9-6.7,0.9c-7,0-10.2-3.9-10.2-8.8c0-2.5,0.3-4.8,1-8l3.7-19.1h-5.8l1.5-7.9h5.8l1.8-9.2L661.4,1156.9z"/>
		<path d="M686.5,1219.1c2.5,1.5,7.3,2.5,11.3,2.5c6.7,0,11.8-3.2,13.9-13.1l1.1-4.8h-0.2c-3.5,5.1-8,7.6-13.4,7.6
			c-8.5,0-13.3-7-13.4-15.1c0-14.2,10.3-28.5,28-28.5c5.5,0,10.9,1.2,14.8,3l-6.5,35.3c-1.6,8.3-4,15-8.8,19.1
			c-4.5,3.7-10.5,4.7-15.9,4.7c-5.4,0-10.5-1.1-13.3-2.9L686.5,1219.1z M717.4,1176.8c-1.1-0.5-3.2-1.1-5.6-1.1
			c-9,0-15.3,9.7-15.3,18.9c-0.1,4.5,1.8,8.7,6.8,8.7c5.1,0,10.2-6.1,11.7-13.8L717.4,1176.8z"/>
		<path d="M775.8,1185.5c0,14.5-10.2,27-24.8,27c-10.8,0-17.5-7.5-17.5-17.7c0-14.5,10.1-27,24.7-27
			C769.8,1167.7,775.8,1176,775.8,1185.5z M744.1,1194.5c0,5.9,3.2,10,8.3,10c7.6,0,12.7-10.5,12.7-19.1c0-4.4-1.9-9.8-8.2-9.8
			C748.9,1175.6,744.1,1186.5,744.1,1194.5z"/>
		<path d="M814.1,1209c-4.2,2.2-9.9,3.3-15.1,3.3c-11.9,0-17.6-7.2-17.6-17.7c0-12.9,9.5-27,24.2-27c8.4,0,13.8,4.9,13.8,12
			c0,11-11.5,14.5-28,14.1c-0.2,1.5,0.2,4.4,1.1,6.1c1.7,2.9,4.7,4.4,8.8,4.4c4.8,0,8.7-1.2,11.8-2.8L814.1,1209z M804.4,1175.4
			c-6.4,0-10.6,5.7-11.9,10.9c10.5,0.2,17.3-1.3,17.3-6.4C809.8,1177.1,807.6,1175.4,804.4,1175.4z"/>
		<path d="M823.7,1201.9c2.2,1.2,6.4,2.9,10.3,2.9c4.1-0.1,6.6-2.5,6.6-5.3c0-2.7-1.4-4.4-5.6-6.6c-4.9-2.5-8.4-6.2-8.4-11.2
			c0-8.3,7.2-14.1,17.3-14.1c4.5,0,8.2,1.1,10.1,2.2l-2.6,7.4c-1.6-0.9-4.5-1.9-8-1.9c-3.9,0-6.5,2.1-6.5,5c0,2.4,1.9,4,5.5,5.9
			c4.7,2.5,8.9,6.1,8.9,11.5c0,9.4-7.9,14.6-18.2,14.6c-5,0-9.7-1.4-11.9-3.1L823.7,1201.9z"/>
		<path d="M873.5,1211.5l11.8-62.3h10.3l-5,26h0.2c3.6-4.5,8.3-7.4,14.3-7.4c5.9,0,10.7,3.7,10.7,11.5c0,2.2-0.3,5.2-0.7,7.6
			l-4.7,24.7h-10.2l4.6-24c0.3-1.7,0.5-3.5,0.5-5.6c0-3.2-1.5-5.8-5.4-5.8c-5,0-10.6,6-12.3,15l-3.9,20.4H873.5z"/>
		<path d="M955.4,1209c-4.2,2.2-9.9,3.3-15.1,3.3c-11.9,0-17.6-7.2-17.6-17.7c0-12.9,9.5-27,24.2-27c8.4,0,13.8,4.9,13.8,12
			c0,11-11.5,14.5-28,14.1c-0.2,1.5,0.2,4.4,1.1,6.1c1.7,2.9,4.7,4.4,8.8,4.4c4.8,0,8.7-1.2,11.8-2.8L955.4,1209z M945.6,1175.4
			c-6.4,0-10.6,5.7-11.9,10.9c10.5,0.2,17.3-1.3,17.3-6.4C951.1,1177.1,948.9,1175.4,945.6,1175.4z"/>
		<path d="M963.9,1211.5l5-26.3c1.1-6.1,1.7-12.6,2.2-16.4h8.9c-0.3,2.9-0.5,5.9-1,9h0.3c2.9-5.8,7.6-10,13.4-10
			c0.7,0,1.5,0.1,2.2,0.2l-2,10c-0.5-0.1-1.2-0.2-1.9-0.2c-7.3,0-11.9,7.4-13.6,16.5l-3.2,17.2H963.9z"/>
		<path d="M1027.6,1209c-4.2,2.2-9.9,3.3-15.1,3.3c-11.9,0-17.6-7.2-17.6-17.7c0-12.9,9.5-27,24.2-27c8.4,0,13.8,4.9,13.8,12
			c0,11-11.5,14.5-28,14.1c-0.2,1.5,0.2,4.4,1.1,6.1c1.7,2.9,4.7,4.4,8.8,4.4c4.8,0,8.7-1.2,11.8-2.8L1027.6,1209z M1017.8,1175.4
			c-6.4,0-10.6,5.7-11.9,10.9c10.5,0.2,17.3-1.3,17.3-6.4C1023.3,1177.1,1021.1,1175.4,1017.8,1175.4z"/>
		<path d="M1038.3,1206c0-4.1,3-7.6,7.2-7.6c3.8,0,6.2,2.6,6.2,6.5c0,4.2-3,7.4-7.3,7.4C1040.7,1212.4,1038.3,1209.6,1038.3,1206z
			 M1067.6,1206c0-4.1,3-7.6,7.2-7.6c3.7,0,6.2,2.6,6.2,6.5c0,4.2-3.1,7.4-7.3,7.4C1070.1,1212.4,1067.6,1209.6,1067.6,1206z
			 M1096.9,1206c0-4.1,2.9-7.6,7.2-7.6c3.7,0,6.1,2.6,6.1,6.5c0,4.2-3,7.4-7.2,7.4C1099.3,1212.4,1096.9,1209.6,1096.9,1206z"/>
	</g>
	<g>
		<path d="M15.3,1267.3c1.1,0.7,2.8,1.3,4.6,1.3c2.6,0,4.1-1.4,4.1-3.4c0-1.8-1.1-2.9-3.7-3.9c-3.2-1.1-5.2-2.8-5.2-5.6
			c0-3.1,2.5-5.4,6.4-5.4c2,0,3.5,0.5,4.4,1l-0.7,2.1c-0.6-0.4-2-0.9-3.8-0.9c-2.7,0-3.7,1.6-3.7,3c0,1.8,1.2,2.8,3.9,3.8
			c3.3,1.3,5,2.9,5,5.8c0,3-2.3,5.7-6.9,5.7c-1.9,0-4-0.6-5-1.3L15.3,1267.3z"/>
		<path d="M31.6,1263.8c0.1,3.5,2.3,4.9,4.9,4.9c1.8,0,3-0.3,3.9-0.7l0.4,1.8c-0.9,0.4-2.5,0.9-4.7,0.9c-4.4,0-7-2.9-7-7.1
			s2.5-7.6,6.7-7.6c4.6,0,5.9,4.1,5.9,6.7c0,0.5-0.1,0.9-0.1,1.2H31.6z M39.2,1262c0-1.6-0.7-4.2-3.6-4.2c-2.6,0-3.8,2.4-4,4.2H39.2
			z"/>
		<path d="M44.9,1260.1c0-1.5,0-2.7-0.1-3.8H47l0.1,2.3h0.1c0.8-1.3,2.1-2.6,4.5-2.6c1.9,0,3.4,1.2,4,2.8h0.1c0.4-0.8,1-1.4,1.6-1.8
			c0.8-0.6,1.8-1,3.1-1c1.9,0,4.7,1.2,4.7,6.2v8.3h-2.5v-8c0-2.7-1-4.4-3.1-4.4c-1.5,0-2.6,1.1-3,2.3c-0.1,0.4-0.2,0.8-0.2,1.3v8.8
			h-2.5v-8.5c0-2.3-1-3.9-3-3.9c-1.6,0-2.8,1.3-3.2,2.6c-0.1,0.4-0.2,0.8-0.2,1.3v8.6h-2.5V1260.1z"/>
		<path d="M72.2,1252.3c0,0.9-0.6,1.6-1.6,1.6c-0.9,0-1.6-0.7-1.6-1.6c0-0.9,0.7-1.6,1.6-1.6C71.6,1250.7,72.2,1251.4,72.2,1252.3z
			 M69.3,1270.4v-14.2h2.6v14.2H69.3z"/>
		<path d="M76.1,1270.4c0.1-1,0.1-2.4,0.1-3.7v-17.1h2.5v8.9h0.1c0.9-1.6,2.5-2.6,4.8-2.6c3.5,0,6,2.9,6,7.2c0,5.1-3.2,7.6-6.4,7.6
			c-2.1,0-3.7-0.8-4.7-2.7h-0.1l-0.1,2.3H76.1z M78.7,1264.8c0,0.3,0.1,0.6,0.1,0.9c0.5,1.8,2,3,3.9,3c2.7,0,4.3-2.2,4.3-5.4
			c0-2.8-1.5-5.3-4.2-5.3c-1.8,0-3.4,1.2-3.9,3.2c-0.1,0.3-0.1,0.6-0.1,1.1V1264.8z"/>
		<path d="M105.7,1263.2c0,5.2-3.6,7.5-7.1,7.5c-3.8,0-6.8-2.8-6.8-7.3c0-4.7,3.1-7.5,7-7.5C102.9,1255.9,105.7,1258.9,105.7,1263.2
			z M94.4,1263.4c0,3.1,1.8,5.4,4.3,5.4c2.5,0,4.3-2.3,4.3-5.5c0-2.4-1.2-5.4-4.2-5.4S94.4,1260.7,94.4,1263.4z"/>
		<path d="M108.9,1249.6h2.6v20.8h-2.6V1249.6z"/>
		<path d="M128.1,1249.6v17.1c0,1.3,0,2.7,0.1,3.7h-2.3l-0.1-2.5h-0.1c-0.8,1.6-2.5,2.8-4.8,2.8c-3.4,0-6.1-2.9-6.1-7.2
			c0-4.7,2.9-7.6,6.4-7.6c2.2,0,3.6,1,4.3,2.2h0.1v-8.5H128.1z M125.5,1262c0-0.3,0-0.8-0.1-1.1c-0.4-1.6-1.8-3-3.7-3
			c-2.7,0-4.2,2.3-4.2,5.5c0,2.9,1.4,5.2,4.2,5.2c1.7,0,3.3-1.1,3.8-3.1c0.1-0.4,0.1-0.7,0.1-1.1V1262z"/>
		<path d="M141.2,1250.7v19.7h-2.5v-19.7H141.2z"/>
		<path d="M149.2,1252.2v4.1h3.7v2h-3.7v7.6c0,1.8,0.5,2.8,1.9,2.8c0.7,0,1.2-0.1,1.5-0.2l0.1,1.9c-0.5,0.2-1.3,0.4-2.3,0.4
			c-1.2,0-2.2-0.4-2.8-1.1c-0.7-0.8-1-2-1-3.7v-7.7h-2.2v-2h2.2v-3.4L149.2,1252.2z"/>
		<path d="M163.6,1270.4l-0.2-1.8h-0.1c-0.8,1.1-2.3,2.1-4.3,2.1c-2.9,0-4.3-2-4.3-4.1c0-3.4,3-5.3,8.5-5.3v-0.3
			c0-1.2-0.3-3.3-3.2-3.3c-1.3,0-2.7,0.4-3.7,1.1l-0.6-1.7c1.2-0.8,2.9-1.3,4.7-1.3c4.3,0,5.4,3,5.4,5.8v5.3c0,1.2,0.1,2.4,0.2,3.4
			H163.6z M163.2,1263.2c-2.8-0.1-6,0.4-6,3.2c0,1.7,1.1,2.5,2.4,2.5c1.8,0,3-1.2,3.4-2.4c0.1-0.3,0.1-0.6,0.1-0.8V1263.2z"/>
		<path d="M169.9,1249.6h2.6v20.8h-2.6V1249.6z"/>
		<path d="M179.7,1252.3c0,0.9-0.6,1.6-1.6,1.6c-0.9,0-1.6-0.7-1.6-1.6c0-0.9,0.7-1.6,1.6-1.6
			C179.1,1250.7,179.7,1251.4,179.7,1252.3z M176.8,1270.4v-14.2h2.6v14.2H176.8z"/>
		<path d="M193.8,1269.9c-0.7,0.4-2.2,0.8-4.1,0.8c-4.3,0-7.1-2.9-7.1-7.2c0-4.4,3-7.5,7.6-7.5c1.5,0,2.9,0.4,3.6,0.7l-0.6,2
			c-0.6-0.4-1.6-0.7-3-0.7c-3.3,0-5,2.4-5,5.4c0,3.3,2.1,5.3,4.9,5.3c1.5,0,2.4-0.4,3.2-0.7L193.8,1269.9z"/>
	</g>
</g>
<g>
	<g>
		<line x1="158" y1="1487.8" x2="1182.4" y2="1487.8"/>
		<rect x="158" y="1487.2" width="1024.5" height="1.2"/>
	</g>
	<g>
		<path d="M26.2,1417.1c3.6,1.8,9.1,3.7,14.8,3.7c6.1,0,9.4-2.5,9.4-6.4c0-3.7-2.8-5.8-9.9-8.3c-9.8-3.4-16.2-8.9-16.2-17.5
			c0-10.1,8.4-17.8,22.4-17.8c6.7,0,11.6,1.4,15.1,3l-3,10.8c-2.4-1.1-6.6-2.8-12.4-2.8s-8.6,2.6-8.6,5.7c0,3.8,3.3,5.4,11,8.3
			c10.4,3.9,15.4,9.3,15.4,17.7c0,9.9-7.6,18.4-23.9,18.4c-6.8,0-13.4-1.8-16.8-3.6L26.2,1417.1z"/>
		<path d="M115.8,1408.9c0,15.7-11.2,22.9-22.7,22.9c-12.6,0-22.2-8.3-22.2-22.1s9.1-22.7,22.9-22.7
			C107,1387,115.8,1396,115.8,1408.9z M84.7,1409.3c0,7.4,3.1,12.9,8.8,12.9c5.2,0,8.5-5.2,8.5-12.9c0-6.4-2.5-12.9-8.5-12.9
			C87.1,1396.4,84.7,1403,84.7,1409.3z"/>
		<path d="M124.1,1401.6c0-5.4-0.2-9.9-0.4-13.7h11.2l0.6,5.8h0.3c1.8-2.7,5.6-6.8,13-6.8c5.5,0,9.9,2.8,11.8,7.3h0.2
			c1.6-2.2,3.5-4,5.5-5.2c2.4-1.4,5-2.1,8.2-2.1c8.3,0,14.5,5.8,14.5,18.6v25.3h-13v-23.4c0-6.2-2-9.8-6.3-9.8
			c-3.1,0-5.3,2.1-6.1,4.7c-0.4,1-0.5,2.4-0.5,3.4v25.1h-13v-24.1c0-5.4-1.9-9.1-6.1-9.1c-3.4,0-5.4,2.6-6.2,4.8
			c-0.4,1.1-0.5,2.3-0.5,3.3v25h-13V1401.6z"/>
		<path d="M209.9,1413.7c0.4,5.5,5.9,8.2,12.1,8.2c4.6,0,8.3-0.6,11.9-1.8l1.8,9c-4.4,1.8-9.7,2.6-15.5,2.6
			c-14.6,0-22.9-8.4-22.9-21.9c0-10.9,6.8-22.9,21.7-22.9c13.9,0,19.1,10.8,19.1,21.4c0,2.3-0.3,4.3-0.4,5.3H209.9z M225.6,1404.5
			c0-3.2-1.4-8.7-7.6-8.7c-5.6,0-7.9,5.1-8.3,8.7H225.6z"/>
		<path d="M263.6,1419.2c2.5,1.5,7.6,3.2,11.5,3.2c4,0,5.7-1.4,5.7-3.6s-1.3-3.2-6.3-4.9c-8.9-3-12.3-7.8-12.2-12.9
			c0-8,6.8-14.1,17.5-14.1c5,0,9.5,1.1,12.1,2.5l-2.4,9.2c-1.9-1.1-5.6-2.5-9.3-2.5c-3.2,0-5.1,1.3-5.1,3.5c0,2,1.7,3.1,6.9,4.9
			c8.2,2.8,11.6,6.9,11.7,13.3c0,8-6.3,13.9-18.6,13.9c-5.6,0-10.6-1.2-13.9-3L263.6,1419.2z"/>
		<path d="M326.2,1430.9l-0.8-4.3h-0.3c-2.8,3.4-7.2,5.3-12.3,5.3c-8.7,0-13.9-6.3-13.9-13.2c0-11.2,10-16.5,25.2-16.4v-0.6
			c0-2.3-1.2-5.5-7.8-5.5c-4.4,0-9,1.5-11.9,3.2l-2.5-8.6c3-1.7,8.9-3.8,16.7-3.8c14.3,0,18.9,8.4,18.9,18.5v14.9
			c0,4.1,0.2,8.1,0.6,10.4H326.2z M324.6,1410.6c-7-0.1-12.5,1.6-12.5,6.8c0,3.4,2.3,5.1,5.3,5.1c3.3,0,6.1-2.2,6.9-4.9
			c0.2-0.7,0.3-1.5,0.3-2.3V1410.6z"/>
		<path d="M348.2,1401.6c0-5.4-0.2-9.9-0.4-13.7H359l0.6,5.8h0.3c1.8-2.7,5.6-6.8,13-6.8c5.5,0,9.9,2.8,11.8,7.3h0.2
			c1.6-2.2,3.5-4,5.5-5.2c2.4-1.4,5-2.1,8.2-2.1c8.3,0,14.5,5.8,14.5,18.6v25.3h-13v-23.4c0-6.2-2-9.8-6.3-9.8
			c-3.1,0-5.3,2.1-6.1,4.7c-0.4,1-0.5,2.4-0.5,3.4v25.1h-13v-24.1c0-5.4-1.9-9.1-6.1-9.1c-3.4,0-5.4,2.6-6.2,4.8
			c-0.4,1.1-0.5,2.3-0.5,3.3v25h-13V1401.6z"/>
		<path d="M423.7,1402.3c0-5.6-0.2-10.5-0.4-14.4h11.6l0.6,6h0.2c3.2-4.6,8.1-6.9,14.3-6.9c9.4,0,17.8,8.2,17.8,21.9
			c0,15.6-9.9,23-19.5,23c-5.2,0-9.2-2.1-11.2-4.9H437v21.3h-13.3V1402.3z M437,1412.4c0,1.1,0.1,2,0.3,2.8c0.9,3.6,4,6.3,7.8,6.3
			c5.8,0,9.2-4.8,9.2-12.1c0-6.8-3.1-12-9-12c-3.8,0-7.1,2.8-8,6.8c-0.2,0.7-0.3,1.6-0.3,2.4V1412.4z"/>
		<path d="M476.2,1368.5h13.3v62.3h-13.3V1368.5z"/>
		<path d="M510.6,1413.7c0.4,5.5,5.9,8.2,12.1,8.2c4.6,0,8.3-0.6,11.9-1.8l1.8,9c-4.4,1.8-9.7,2.6-15.5,2.6
			c-14.6,0-22.9-8.4-22.9-21.9c0-10.9,6.8-22.9,21.7-22.9c13.9,0,19.1,10.8,19.1,21.4c0,2.3-0.3,4.3-0.4,5.3H510.6z M526.3,1404.5
			c0-3.2-1.4-8.7-7.6-8.7c-5.6,0-7.9,5.1-8.3,8.7H526.3z"/>
		<path d="M579.4,1375.6v12.3h9.6v9.8h-9.6v15.5c0,5.2,1.2,7.6,5.3,7.6c1.7,0,3-0.2,4-0.4l0.1,10.1c-1.8,0.7-4.9,1.1-8.7,1.1
			c-4.3,0-7.9-1.5-10-3.7c-2.5-2.5-3.7-6.7-3.7-12.7v-17.6h-5.7v-9.8h5.7v-9.3L579.4,1375.6z"/>
		<path d="M606.5,1413.7c0.4,5.5,5.9,8.2,12.1,8.2c4.6,0,8.3-0.6,11.9-1.8l1.8,9c-4.4,1.8-9.7,2.6-15.5,2.6
			c-14.6,0-22.9-8.4-22.9-21.9c0-10.9,6.8-22.9,21.7-22.9c13.9,0,19.1,10.8,19.1,21.4c0,2.3-0.3,4.3-0.4,5.3H606.5z M622.2,1404.5
			c0-3.2-1.4-8.7-7.6-8.7c-5.6,0-7.9,5.1-8.3,8.7H622.2z"/>
		<path d="M651.7,1387.9l4.2,7.1c1.2,2.2,2.4,4.4,3.5,6.4h0.2c1.1-2.3,2.2-4.5,3.3-6.6l3.8-6.9h14.5l-14.1,20.5l14.3,22.5h-15.1
			l-4.3-7.7c-1.2-2.1-2.3-4.3-3.3-6.5h-0.3c-1.1,2.3-2.2,4.4-3.2,6.5l-4,7.7h-14.7L651,1409l-14.2-21.1H651.7z"/>
		<path d="M703.2,1375.6v12.3h9.6v9.8h-9.6v15.5c0,5.2,1.2,7.6,5.3,7.6c1.7,0,3-0.2,4-0.4l0.1,10.1c-1.8,0.7-4.9,1.1-8.7,1.1
			c-4.3,0-7.9-1.5-10-3.7c-2.5-2.5-3.7-6.7-3.7-12.7v-17.6h-5.7v-9.8h5.7v-9.3L703.2,1375.6z"/>
		<path d="M779.2,1387.9c-0.2,2.7-0.4,6.3-0.4,12.7v24c0,8.3-1.7,15-6.5,19.3c-4.7,4-11.2,5.3-17.5,5.3c-5.6,0-11.6-1.1-15.5-3.3
			l2.6-10.1c2.7,1.6,7.5,3.2,12.5,3.2c6.3,0,11.2-3.4,11.2-11.3v-2.8h-0.2c-2.5,3.6-6.7,5.6-11.6,5.6c-10.6,0-18.2-8.6-18.2-21
			c0-13.8,9-22.6,19.5-22.6c5.9,0,9.6,2.5,11.8,6.1h0.2l0.4-5.1H779.2z M765.5,1405.4c0-0.9-0.1-1.8-0.3-2.5c-1-3.5-3.5-5.9-7.2-5.9
			c-4.8,0-8.8,4.4-8.8,12.2c0,6.4,3.2,11.4,8.8,11.4c3.4,0,6.1-2.3,7-5.4c0.4-1,0.4-2.4,0.4-3.5V1405.4z"/>
		<path d="M832,1408.9c0,15.7-11.2,22.9-22.7,22.9c-12.6,0-22.2-8.3-22.2-22.1s9.1-22.7,22.9-22.7C823.2,1387,832,1396,832,1408.9z
			 M800.9,1409.3c0,7.4,3.1,12.9,8.8,12.9c5.2,0,8.5-5.2,8.5-12.9c0-6.4-2.5-12.9-8.5-12.9C803.3,1396.4,800.9,1403,800.9,1409.3z"
			/>
		<path d="M850.8,1413.7c0.4,5.5,5.9,8.2,12.1,8.2c4.6,0,8.3-0.6,11.9-1.8l1.8,9c-4.4,1.8-9.7,2.6-15.5,2.6
			c-14.6,0-22.9-8.4-22.9-21.9c0-10.9,6.8-22.9,21.7-22.9c13.9,0,19.1,10.8,19.1,21.4c0,2.3-0.3,4.3-0.4,5.3H850.8z M866.5,1404.5
			c0-3.2-1.4-8.7-7.6-8.7c-5.6,0-7.9,5.1-8.3,8.7H866.5z"/>
		<path d="M886.8,1419.2c2.5,1.5,7.6,3.2,11.5,3.2c4,0,5.7-1.4,5.7-3.6s-1.3-3.2-6.3-4.9c-8.9-3-12.3-7.8-12.2-12.9
			c0-8,6.8-14.1,17.5-14.1c5,0,9.5,1.1,12.1,2.5l-2.4,9.2c-1.9-1.1-5.6-2.5-9.3-2.5c-3.2,0-5.1,1.3-5.1,3.5c0,2,1.7,3.1,6.9,4.9
			c8.2,2.8,11.6,6.9,11.7,13.3c0,8-6.3,13.9-18.6,13.9c-5.6,0-10.6-1.2-13.9-3L886.8,1419.2z"/>
		<path d="M942.7,1368.5h13.3v24.5h0.2c1.4-1.8,3.2-3.2,5.3-4.4c1.9-1.1,4.5-1.7,6.9-1.7c8.5,0,15,5.9,15,18.8v25.1h-13.3v-23.6
			c0-5.6-1.9-9.5-6.9-9.5c-3.5,0-5.7,2.3-6.7,4.7c-0.4,0.9-0.4,2-0.4,3v25.5h-13.3V1368.5z"/>
		<path d="M1004.5,1413.7c0.4,5.5,5.9,8.2,12.1,8.2c4.6,0,8.3-0.6,11.9-1.8l1.8,9c-4.4,1.8-9.7,2.6-15.5,2.6
			c-14.6,0-22.9-8.4-22.9-21.9c0-10.9,6.8-22.9,21.7-22.9c13.9,0,19.1,10.8,19.1,21.4c0,2.3-0.3,4.3-0.4,5.3H1004.5z M1020.2,1404.5
			c0-3.2-1.4-8.7-7.6-8.7c-5.6,0-7.9,5.1-8.3,8.7H1020.2z"/>
		<path d="M1040.6,1402.1c0-6.3-0.2-10.5-0.4-14.1h11.5l0.4,7.9h0.4c2.2-6.2,7.5-8.9,11.6-8.9c1.2,0,1.8,0,2.8,0.2v12.6
			c-1-0.2-2.1-0.4-3.6-0.4c-4.9,0-8.3,2.6-9.1,6.8c-0.2,0.9-0.3,1.9-0.3,3v21.8h-13.3V1402.1z"/>
		<path d="M1083.5,1413.7c0.4,5.5,5.9,8.2,12.1,8.2c4.6,0,8.3-0.6,11.9-1.8l1.8,9c-4.4,1.8-9.7,2.6-15.5,2.6
			c-14.6,0-22.9-8.4-22.9-21.9c0-10.9,6.8-22.9,21.7-22.9c13.9,0,19.1,10.8,19.1,21.4c0,2.3-0.3,4.3-0.4,5.3H1083.5z M1099.2,1404.5
			c0-3.2-1.4-8.7-7.6-8.7c-5.6,0-7.9,5.1-8.3,8.7H1099.2z"/>
		<path d="M1119.6,1423.8c0-4.7,3.2-8.2,7.9-8.2c4.6,0,7.8,3.3,7.8,8.2c0,4.7-3.2,8.1-7.9,8.1
			C1122.8,1431.8,1119.6,1428.4,1119.6,1423.8z M1148.8,1423.8c0-4.7,3.3-8.2,7.9-8.2c4.7,0,7.8,3.3,7.9,8.2c0,4.7-3.2,8.1-7.9,8.1
			C1152.1,1431.8,1148.8,1428.4,1148.8,1423.8z M1178.2,1423.8c0-4.7,3.3-8.2,7.9-8.2c4.7,0,7.8,3.3,7.9,8.2c0,4.7-3.2,8.1-7.9,8.1
			C1181.4,1431.8,1178.2,1428.4,1178.2,1423.8z"/>
	</g>
	<g>
		<path d="M15.7,1476.6c1.1-0.2,2.9-0.4,4.7-0.4c2.5,0,4.2,0.4,5.4,1.4c1,0.8,1.6,1.9,1.6,3.5c0,1.9-1.3,3.6-3.3,4.3v0.1
			c1.9,0.5,4.1,2,4.1,5c0,1.7-0.7,3-1.7,4c-1.4,1.3-3.6,1.8-6.8,1.8c-1.8,0-3.1-0.1-4-0.2V1476.6z M18.2,1484.7h2.3
			c2.7,0,4.3-1.4,4.3-3.3c0-2.3-1.8-3.2-4.3-3.2c-1.2,0-1.8,0.1-2.3,0.2V1484.7z M18.2,1494.1c0.5,0.1,1.2,0.1,2.1,0.1
			c2.6,0,5.1-1,5.1-3.8c0-2.7-2.3-3.8-5.1-3.8h-2.1V1494.1z"/>
		<path d="M44.4,1488.9c0,5.2-3.6,7.5-7.1,7.5c-3.8,0-6.8-2.8-6.8-7.3c0-4.7,3.1-7.5,7-7.5C41.7,1481.6,44.4,1484.5,44.4,1488.9z
			 M33.2,1489c0,3.1,1.8,5.4,4.3,5.4c2.5,0,4.3-2.3,4.3-5.5c0-2.4-1.2-5.4-4.2-5.4S33.2,1486.3,33.2,1489z"/>
		<path d="M47.7,1475.3h2.6v20.8h-2.6V1475.3z"/>
		<path d="M66.8,1475.3v17.1c0,1.3,0,2.7,0.1,3.7h-2.3l-0.1-2.5h-0.1c-0.8,1.6-2.5,2.8-4.8,2.8c-3.4,0-6.1-2.9-6.1-7.2
			c0-4.7,2.9-7.6,6.4-7.6c2.2,0,3.6,1,4.3,2.2h0.1v-8.5H66.8z M64.3,1487.7c0-0.3,0-0.8-0.1-1.1c-0.4-1.6-1.8-3-3.7-3
			c-2.7,0-4.2,2.3-4.2,5.5c0,2.9,1.4,5.2,4.2,5.2c1.7,0,3.3-1.1,3.8-3.1c0.1-0.4,0.1-0.7,0.1-1.1V1487.7z"/>
	</g>
</g>
<g>
	<g>
		<line x1="158" y1="1710.3" x2="1182.4" y2="1710.3"/>
		<rect x="158" y="1709.7" width="1024.5" height="1.2"/>
	</g>
	<g>
		<path d="M24.2,1639.7c3.5,2.1,8.5,3.8,14,3.8c4.9,0,9.4-2.3,9.4-6.9c0-3.3-2.5-5.5-8-8.3c-6.3-3.4-12.3-8-12.3-15.7
			c0-11.9,10.4-19.2,23.4-19.2c7.2,0,11.4,1.6,14,3l-4,10.5c-1.9-1.1-6.1-2.7-11.1-2.6c-5.9,0-9,3-9,6.2c0,3.4,3.6,5.5,8.6,8.3
			c7.2,3.8,11.8,8.6,11.8,15.6c0,13.2-10.9,19.9-24.1,19.9c-8.3,0-14.1-2.1-16.9-4.2L24.2,1639.7z"/>
		<path d="M111.9,1627.1c0,15.7-10.7,27.2-25.6,27.2c-10.9,0-18.2-7.1-18.2-17.7c0-14.9,10.4-27.1,25.6-27.1
			C105.2,1609.5,111.9,1617.4,111.9,1627.1z M81.1,1636.3c0,5,2.5,8.3,6.8,8.3c6.9,0,10.8-10.1,10.8-17.5c0-4-1.7-8.2-6.8-8.2
			C84.7,1619,81,1629.7,81.1,1636.3z"/>
		<path d="M115.6,1653.4l5.4-29c1-5.4,1.7-10.2,2.2-14h10.9l-0.8,6.9h0.2c3.9-5.5,9.1-7.9,14.7-7.9c6.8,0,9.8,4.3,10.2,8.1
			c3.9-5.5,9.2-8.1,14.8-8.1c6.7,0,10.5,4.2,10.5,11.5c0,1.8-0.4,5.2-0.8,7.4l-4.7,25h-12.2l4.3-23.4c0.4-1.8,0.6-3.6,0.6-5.3
			c0-3-1.3-5.1-4.3-5.1c-4.2,0-8.3,5.7-10,14.3l-3.6,19.5h-12.2l4.4-23.6c0.4-1.8,0.6-3.4,0.6-4.9c0-2.9-1-5.3-4-5.3
			c-4.3,0-8.8,6.1-10.4,14.5l-3.5,19.3H115.6z"/>
		<path d="M224.5,1650.9c-5,2.5-11.2,3.3-16,3.3c-12.3,0-18.6-6.9-18.6-18.1c0-13.1,9.5-26.7,25-26.7c8.7,0,14.9,4.8,14.9,12.8
			c0,11-10.6,14.9-27.8,14.5c0,1.2,0.4,3.2,1.3,4.4c1.7,2.2,4.6,3.3,8.3,3.3c4.7,0,8.6-1.1,12-2.7L224.5,1650.9z M213.4,1618.7
			c-5.9,0-9.2,4.8-10.1,8.9c9.8,0.1,14.8-1.3,14.8-5.2C218,1620.2,216.3,1618.7,213.4,1618.7z"/>
		<path d="M250.3,1642c2.5,1.2,7.1,3,11.2,3c3.6,0,5.4-1.8,5.4-3.9c0-2.1-1.4-3.6-5.4-5.5c-5-2.5-9.1-6.1-9.1-11.4
			c0-8.9,7.8-14.8,18.9-14.8c5,0,9,1,11.1,2.2l-3,9c-1.8-0.9-4.8-1.9-8.6-1.9c-3.3,0-5.6,1.5-5.6,3.8c0,1.8,1.8,3.2,5.3,4.9
			c4.7,2.4,9.6,5.8,9.6,11.8c0,9.8-8.3,15.1-19.7,15.1c-5.4,0-10.6-1.4-13.2-3.3L250.3,1642z"/>
		<path d="M313.4,1653.4c0.1-2.5,0.4-5.4,0.6-8.5h-0.3c-4,7.1-9.4,9.5-14.4,9.5c-7.7,0-13-6-13-14.9c0-14.5,9.6-29.9,30.7-29.9
			c5.1,0,10.6,1,14.2,2.1l-4.6,22.5c-1.1,5.5-1.8,14-1.7,19.3H313.4z M317.1,1619.4c-1-0.2-2.2-0.4-3.4-0.4c-8.2,0-14.1,10-14.1,18
			c0,4.2,1.7,7.1,5.2,7.1c3.8,0,8.4-4.3,10.4-14.8L317.1,1619.4z"/>
		<path d="M334.4,1653.4l5.4-29c1-5.4,1.7-10.2,2.2-14h10.9l-0.8,6.9h0.2c3.9-5.5,9.1-7.9,14.7-7.9c6.8,0,9.8,4.3,10.2,8.1
			c3.9-5.5,9.2-8.1,14.8-8.1c6.7,0,10.5,4.2,10.5,11.5c0,1.8-0.4,5.2-0.8,7.4l-4.7,25h-12.2l4.3-23.4c0.4-1.8,0.6-3.6,0.6-5.3
			c0-3-1.3-5.1-4.3-5.1c-4.2,0-8.3,5.7-10,14.3l-3.6,19.5h-12.2l4.4-23.6c0.4-1.8,0.6-3.4,0.6-4.9c0-2.9-1-5.3-4-5.3
			c-4.3,0-8.8,6.1-10.4,14.5l-3.5,19.3H334.4z"/>
		<path d="M403.9,1670.8l8.3-43.7c1-5.1,2-12.2,2.5-16.6h11.3l-0.8,6.2h0.2c3.5-4.7,8.6-7.2,13.8-7.2c9.3,0,13.8,7.5,13.8,16.2
			c0,14.9-9.9,28.6-24.9,28.6c-3.5,0-6.5-0.9-8-1.8H420l-3.5,18.2H403.9z M421.9,1642.7c1.4,1.3,3.3,2.1,5.8,2.1
			c6.8,0,12-9.7,12-18.1c0-3.4-1.4-7-5.5-7c-4.7,0-9.1,5.4-10.7,13.8L421.9,1642.7z"/>
		<path d="M456.7,1653.4l11.9-62.3h12.6l-11.9,62.3H456.7z"/>
		<path d="M515.9,1650.9c-5,2.5-11.2,3.3-16,3.3c-12.3,0-18.6-6.9-18.6-18.1c0-13.1,9.5-26.7,25-26.7c8.7,0,14.9,4.8,14.9,12.8
			c0,11-10.6,14.9-27.8,14.5c0,1.2,0.4,3.2,1.3,4.4c1.7,2.2,4.6,3.3,8.3,3.3c4.7,0,8.6-1.1,12-2.7L515.9,1650.9z M504.7,1618.7
			c-5.9,0-9.2,4.8-10.1,8.9c9.8,0.1,14.8-1.3,14.8-5.2C509.4,1620.2,507.6,1618.7,504.7,1618.7z"/>
		<path d="M564.4,1598.4l-2.3,12h9.1l-1.8,9.6h-9.1l-2.9,14.6c-0.4,1.8-0.7,4-0.7,5.4c0,2.1,0.9,3.6,3.6,3.6c1.1,0,2.4,0,3.5-0.2
			l-1.5,9.9c-1.6,0.6-4.7,1-7.5,1c-7.6,0-11.2-3.9-11.2-9.2c0-2.4,0.3-4.7,0.9-8l3.3-17.1h-5.4l1.8-9.6h5.5l1.8-9L564.4,1598.4z"/>
		<path d="M606.2,1650.9c-5,2.5-11.2,3.3-16,3.3c-12.3,0-18.6-6.9-18.6-18.1c0-13.1,9.5-26.7,25-26.7c8.7,0,14.9,4.8,14.9,12.8
			c0,11-10.6,14.9-27.8,14.5c0,1.2,0.4,3.2,1.3,4.4c1.7,2.2,4.6,3.3,8.3,3.3c4.7,0,8.6-1.1,12-2.7L606.2,1650.9z M595,1618.7
			c-5.9,0-9.2,4.8-10.1,8.9c9.8,0.1,14.8-1.3,14.8-5.2C599.7,1620.2,597.9,1618.7,595,1618.7z"/>
		<path d="M631,1610.4l2.5,6.4c1.3,3.4,2.1,5.5,2.7,7.2h0.3c1.6-2.3,2.7-4.2,4.6-6.8l4.7-6.8h14.5l-18.1,20.8l10,22.1h-13.9
			l-2.7-6.8c-1.2-3.2-1.9-5.3-2.7-7.8h-0.3c-1.2,2-2.5,4.2-4.4,7.2l-5.1,7.5h-14.6l18.6-22.2l-10.1-20.7H631z"/>
		<path d="M683.8,1598.4l-2.3,12h9.1l-1.8,9.6h-9.1l-2.9,14.6c-0.4,1.8-0.7,4-0.7,5.4c0,2.1,0.9,3.6,3.6,3.6c1.1,0,2.4,0,3.5-0.2
			l-1.5,9.9c-1.6,0.6-4.7,1-7.5,1c-7.6,0-11.2-3.9-11.2-9.2c0-2.4,0.3-4.7,0.9-8l3.3-17.1h-5.4l1.8-9.6h5.5l1.8-9L683.8,1598.4z"/>
		<path d="M709,1659.3c2.4,1.4,7.6,2.4,11.2,2.4c6.3,0,11.1-2.8,12.8-11.4l0.7-3.6h-0.2c-3.3,4.3-7.2,6.3-12.3,6.3
			c-8.5,0-13.7-6.9-13.8-15.3c0-14.2,10.1-28.3,28.8-28.3c6.1,0,11.4,1.1,15.9,3l-6.5,35.4c-1.5,7.9-3.9,14.9-9,19.1
			c-4.7,3.7-10.9,4.8-16.6,4.8s-11.1-1.1-14-2.7L709,1659.3z M738.5,1619.9c-1-0.4-2.8-0.8-4.6-0.8c-7.6,0-13.1,8.5-13.1,16.7
			c0,4.3,1.9,7.5,5.8,7.5c4.1,0,8.3-4.6,9.7-11.9L738.5,1619.9z"/>
		<path d="M800.5,1627.1c0,15.7-10.7,27.2-25.6,27.2c-10.9,0-18.2-7.1-18.2-17.7c0-14.9,10.4-27.1,25.6-27.1
			C793.8,1609.5,800.5,1617.4,800.5,1627.1z M769.8,1636.3c0,5,2.5,8.3,6.8,8.3c6.9,0,10.8-10.1,10.8-17.5c0-4-1.7-8.2-6.8-8.2
			C773.4,1619,769.7,1629.7,769.8,1636.3z"/>
		<path d="M840.6,1650.9c-5,2.5-11.2,3.3-16,3.3c-12.3,0-18.6-6.9-18.6-18.1c0-13.1,9.5-26.7,25-26.7c8.7,0,14.9,4.8,14.9,12.8
			c0,11-10.6,14.9-27.8,14.5c0,1.2,0.4,3.2,1.3,4.4c1.7,2.2,4.6,3.3,8.3,3.3c4.7,0,8.6-1.1,12-2.7L840.6,1650.9z M829.5,1618.7
			c-5.9,0-9.2,4.8-10.1,8.9c9.8,0.1,14.8-1.3,14.8-5.2C834.1,1620.2,832.4,1618.7,829.5,1618.7z"/>
		<path d="M850.3,1642c2.5,1.2,7.1,3,11.2,3c3.6,0,5.4-1.8,5.4-3.9c0-2.1-1.4-3.6-5.4-5.5c-5-2.5-9.1-6.1-9.1-11.4
			c0-8.9,7.8-14.8,18.9-14.8c5,0,9,1,11.1,2.2l-3,9c-1.8-0.9-4.8-1.9-8.6-1.9c-3.3,0-5.6,1.5-5.6,3.8c0,1.8,1.8,3.2,5.3,4.9
			c4.7,2.4,9.6,5.8,9.6,11.8c0,9.8-8.3,15.1-19.7,15.1c-5.4,0-10.6-1.4-13.2-3.3L850.3,1642z"/>
		<path d="M901.4,1653.4l11.8-62.3h12.6l-4.7,24.9l0.2,0.1c3.5-4,8-6.5,13.7-6.5c6.7,0,10.8,4.2,10.8,11.6c0,2-0.4,5.3-0.8,7.7
			l-4.7,24.6h-12.6l4.4-23.5c0.4-1.7,0.6-3.5,0.6-5.4c0-2.8-1.2-4.8-4.4-4.8c-4.4,0-8.9,5.4-10.5,14.1l-3.7,19.7H901.4z"/>
		<path d="M986.7,1650.9c-5,2.5-11.2,3.3-16,3.3c-12.3,0-18.6-6.9-18.6-18.1c0-13.1,9.5-26.7,25-26.7c8.7,0,14.9,4.8,14.9,12.8
			c0,11-10.6,14.9-27.8,14.5c0,1.2,0.4,3.2,1.3,4.4c1.7,2.2,4.6,3.3,8.3,3.3c4.7,0,8.6-1.1,12-2.7L986.7,1650.9z M975.6,1618.7
			c-5.9,0-9.2,4.8-10.1,8.9c9.8,0.1,14.8-1.3,14.8-5.2C980.2,1620.2,978.5,1618.7,975.6,1618.7z"/>
		<path d="M994.8,1653.4l4.8-25.6c1.2-6.5,1.8-13.7,2.2-17.4h11c-0.3,2.9-0.5,5.8-0.8,8.8h0.3c3-5.7,7.8-9.7,13.7-9.7
			c0.8,0,1.6,0,2.4,0.1l-2.5,12.3c-0.6-0.1-1.3-0.1-2-0.1c-8.1,0-11.9,7.2-13.4,15.6l-3,16H994.8z"/>
		<path d="M1063.2,1650.9c-5,2.5-11.2,3.3-16,3.3c-12.3,0-18.6-6.9-18.6-18.1c0-13.1,9.5-26.7,25-26.7c8.7,0,14.9,4.8,14.9,12.8
			c0,11-10.6,14.9-27.8,14.5c0,1.2,0.4,3.2,1.3,4.4c1.7,2.2,4.6,3.3,8.3,3.3c4.7,0,8.6-1.1,12-2.7L1063.2,1650.9z M1052.1,1618.7
			c-5.9,0-9.2,4.8-10.1,8.9c9.8,0.1,14.8-1.3,14.8-5.2C1056.7,1620.2,1055,1618.7,1052.1,1618.7z"/>
		<path d="M1073.1,1647c0-4.8,3.5-9,8.5-9c4.3,0,7.3,3.1,7.3,7.5c0,5.2-3.6,8.8-8.7,8.8C1075.9,1654.3,1073.1,1651.2,1073.1,1647z
			 M1102.4,1647c0-4.8,3.5-9,8.5-9c4.3,0,7.3,3.1,7.3,7.5c0,5.2-3.6,8.8-8.7,8.8C1105.2,1654.3,1102.4,1651.2,1102.4,1647z
			 M1131.7,1647c0-4.8,3.5-9,8.5-9c4.3,0,7.3,3.1,7.3,7.5c0,5.2-3.7,8.8-8.7,8.8C1134.5,1654.3,1131.7,1651.2,1131.7,1647z"/>
	</g>
	<g>
		<path d="M15.7,1699.1c1.1-0.2,2.9-0.4,4.7-0.4c2.5,0,4.2,0.4,5.4,1.4c1,0.8,1.6,1.9,1.6,3.5c0,1.9-1.3,3.6-3.3,4.3v0.1
			c1.9,0.5,4.1,2,4.1,5c0,1.7-0.7,3-1.7,4c-1.4,1.3-3.6,1.8-6.8,1.8c-1.8,0-3.1-0.1-4-0.2V1699.1z M18.2,1707.2h2.3
			c2.7,0,4.3-1.4,4.3-3.3c0-2.3-1.8-3.2-4.3-3.2c-1.2,0-1.8,0.1-2.3,0.2V1707.2z M18.2,1716.6c0.5,0.1,1.2,0.1,2.1,0.1
			c2.6,0,5.1-1,5.1-3.8c0-2.7-2.3-3.8-5.1-3.8h-2.1V1716.6z"/>
		<path d="M44.4,1711.4c0,5.2-3.6,7.5-7.1,7.5c-3.8,0-6.8-2.8-6.8-7.3c0-4.7,3.1-7.5,7-7.5C41.7,1704.1,44.4,1707,44.4,1711.4z
			 M33.2,1711.5c0,3.1,1.8,5.4,4.3,5.4c2.5,0,4.3-2.3,4.3-5.5c0-2.4-1.2-5.4-4.2-5.4S33.2,1708.8,33.2,1711.5z"/>
		<path d="M47.7,1697.8h2.6v20.8h-2.6V1697.8z"/>
		<path d="M66.8,1697.8v17.1c0,1.3,0,2.7,0.1,3.7h-2.3l-0.1-2.5h-0.1c-0.8,1.6-2.5,2.8-4.8,2.8c-3.4,0-6.1-2.9-6.1-7.2
			c0-4.7,2.9-7.6,6.4-7.6c2.2,0,3.6,1,4.3,2.2h0.1v-8.5H66.8z M64.3,1710.2c0-0.3,0-0.8-0.1-1.1c-0.4-1.6-1.8-3-3.7-3
			c-2.7,0-4.2,2.3-4.2,5.5c0,2.9,1.4,5.2,4.2,5.2c1.7,0,3.3-1.1,3.8-3.1c0.1-0.4,0.1-0.7,0.1-1.1V1710.2z"/>
		<path d="M80,1698.8v19.7h-2.5v-19.7H80z"/>
		<path d="M87.9,1700.3v4.1h3.7v2h-3.7v7.6c0,1.8,0.5,2.8,1.9,2.8c0.7,0,1.2-0.1,1.5-0.2l0.1,1.9c-0.5,0.2-1.3,0.4-2.3,0.4
			c-1.2,0-2.2-0.4-2.8-1.1c-0.7-0.8-1-2-1-3.7v-7.7h-2.2v-2h2.2v-3.4L87.9,1700.3z"/>
		<path d="M102.3,1718.6l-0.2-1.8h-0.1c-0.8,1.1-2.3,2.1-4.3,2.1c-2.9,0-4.3-2-4.3-4.1c0-3.4,3-5.3,8.5-5.3v-0.3
			c0-1.2-0.3-3.3-3.2-3.3c-1.3,0-2.7,0.4-3.7,1.1l-0.6-1.7c1.2-0.8,2.9-1.3,4.7-1.3c4.3,0,5.4,3,5.4,5.8v5.3c0,1.2,0.1,2.4,0.2,3.4
			H102.3z M102,1711.3c-2.8-0.1-6,0.4-6,3.2c0,1.7,1.1,2.5,2.4,2.5c1.8,0,3-1.2,3.4-2.4c0.1-0.3,0.1-0.6,0.1-0.8V1711.3z"/>
		<path d="M108.6,1697.8h2.6v20.8h-2.6V1697.8z"/>
		<path d="M118.4,1700.4c0,0.9-0.6,1.6-1.6,1.6c-0.9,0-1.6-0.7-1.6-1.6c0-0.9,0.7-1.6,1.6-1.6
			C117.8,1698.8,118.4,1699.5,118.4,1700.4z M115.5,1718.6v-14.2h2.6v14.2H115.5z"/>
		<path d="M132.5,1718.1c-0.7,0.4-2.2,0.8-4.1,0.8c-4.3,0-7.1-2.9-7.1-7.2c0-4.4,3-7.5,7.6-7.5c1.5,0,2.9,0.4,3.6,0.7l-0.6,2
			c-0.6-0.4-1.6-0.7-3-0.7c-3.3,0-5,2.4-5,5.4c0,3.3,2.1,5.3,4.9,5.3c1.5,0,2.4-0.4,3.2-0.7L132.5,1718.1z"/>
	</g>
</g>
<g>
	<g>
		<line x1="158" y1="1932.9" x2="1182.4" y2="1932.9"/>
		<rect x="158" y="1932.3" width="1024.5" height="1.2"/>
	</g>
	<g>
		<path d="M26.5,1860.1c3.6,1.8,9.5,3.7,15.4,3.7c5.4,0,8.1-1.8,8.1-4.8c0-2.9-2.6-4.6-9.3-6.8c-10-3.5-16.6-9-16.6-17.8
			c0-10.5,8.8-18.5,23.7-18.5c7.1,0,12.1,1.3,16.1,3.1l-3.3,12.6c-2.5-1.1-6.9-2.8-12.9-2.8c-4.8,0-7.5,1.8-7.5,4.4
			c0,3,3.2,4.2,10.6,7c10.6,3.9,15.5,9.6,15.5,17.8c0,10.2-8,18.9-25.3,18.9c-7.1,0-14.1-1.8-17.4-3.6L26.5,1860.1z"/>
		<path d="M118.9,1853.8c0,15.7-11.2,23-23.4,23c-12.9,0-22.9-8.3-22.9-22.3c0-13.7,9-22.8,23.8-22.8
			C109.9,1831.7,118.9,1840.8,118.9,1853.8z M88.9,1854.3c0,6.4,2.1,11.4,7,11.4c4.2,0,6.6-4.5,6.6-11.4c0-6-1.9-11.4-6.7-11.4
			C90.7,1842.9,88.9,1848.6,88.9,1854.3z"/>
		<path d="M126.5,1847.3c0-5.7-0.2-10.7-0.4-14.7h13.3l0.6,5.4h0.4c1.6-2.1,5.4-6.3,12.7-6.3c5.5,0,9.8,2.5,11.7,6.8h0.2
			c1.8-2.2,3.7-4,6-5.1c2.2-1.1,4.7-1.8,7.6-1.8c9.3,0,14.7,6.8,14.7,18.7v25.5h-15.4v-23.1c0-5.4-1.6-8.4-5.1-8.4
			c-2.5,0-4.1,1.7-4.8,3.7c-0.4,0.9-0.4,2.3-0.4,3.2v24.7h-15.4v-23.5c0-4.8-1.5-8-5-8c-2.9,0-4.2,2.1-4.8,3.6
			c-0.4,1-0.4,2.1-0.4,3.2v24.8h-15.4V1847.3z"/>
		<path d="M215.8,1859.8c0.5,3.4,5.5,5.4,11.1,5.4c4.1,0,8-0.4,11.9-1.7l2,10.5c-5.2,2.1-10.8,2.7-16.2,2.7
			c-15.2,0-23.8-8.3-23.8-22c0-10.1,6.5-23,22.4-23c14,0,19.9,10.3,19.9,22.1c0,2.6-0.4,4.9-0.6,6H215.8z M228.6,1849.1
			c0-2.5-1.1-7-6.1-7c-4.7,0-6.5,4.3-6.8,7H228.6z"/>
		<path d="M268.1,1862.6c2.5,1.5,8.1,3.2,12,3.2c3.3,0,4.7-0.8,4.7-2.4c0-1.6-1-2.3-5.6-3.8c-9.5-3-12.7-8.2-12.6-13.2
			c0-8.6,7.3-14.8,18.6-14.8c5.4,0,10.1,1.1,12.9,2.5l-2.5,10.7c-2-1-6.1-2.4-9.6-2.4c-2.7,0-4.3,0.7-4.3,2.5c0,1.4,1.4,2.3,6.5,4
			c8.5,2.8,11.8,7.2,11.9,13.4c0,8.3-6.4,14.4-19.8,14.4c-6,0-11.3-1.2-14.8-3L268.1,1862.6z"/>
		<path d="M332.2,1875.9l-0.9-3.8H331c-3.1,3.4-7.4,4.7-12,4.7c-8.8,0-14.2-6.4-14.2-13.6c0-11.6,10.4-16.7,25-16.8v-0.4
			c0-1.8-1.3-3.7-7-3.7c-4.6,0-9.4,1.6-12.2,3.2l-2.8-10.1c2.8-1.4,9-3.9,17.9-3.9c14.8,0,20,8.3,20,19.1v14.6
			c0,4.3,0.2,8.3,0.7,10.5H332.2z M330.3,1856.1c-6.4,0-10.1,1.8-10.1,5.6c0,2.7,1.8,4.1,4.5,4.1c2.3,0,4.7-1.6,5.4-4
			c0.2-0.7,0.2-1.5,0.2-2.3V1856.1z"/>
		<path d="M355.4,1847.3c0-5.7-0.2-10.7-0.4-14.7h13.3l0.6,5.4h0.4c1.6-2.1,5.4-6.3,12.7-6.3c5.5,0,9.8,2.5,11.7,6.8h0.2
			c1.8-2.2,3.7-4,6-5.1c2.2-1.1,4.7-1.8,7.6-1.8c9.3,0,14.7,6.8,14.7,18.7v25.5h-15.4v-23.1c0-5.4-1.6-8.4-5.1-8.4
			c-2.5,0-4.1,1.7-4.8,3.7c-0.4,0.9-0.4,2.3-0.4,3.2v24.7h-15.4v-23.5c0-4.8-1.5-8-5-8c-2.9,0-4.2,2.1-4.8,3.6
			c-0.4,1-0.4,2.1-0.4,3.2v24.8h-15.4V1847.3z"/>
		<path d="M431.9,1847.3c0-5.7-0.2-10.6-0.4-14.7h13.6l0.7,5.4h0.2c3.2-4.2,8.1-6.4,14-6.4c9,0,17.8,8,17.8,22
			c0,15.8-10.3,23.1-19.7,23.1c-4.9,0-8.7-1.9-10.3-4.1h-0.2v20.5h-15.8V1847.3z M447.7,1857c0,1,0.1,1.8,0.3,2.6
			c0.6,2.8,3,5.2,6.1,5.2c4.7,0,7.6-4.1,7.6-10.4c0-6.1-2.5-10.5-7.5-10.5c-3.2,0-5.9,2.5-6.4,5.6c-0.2,0.6-0.2,1.3-0.2,2V1857z"/>
		<path d="M485.5,1813.5h15.8v62.3h-15.8V1813.5z"/>
		<path d="M524,1859.8c0.5,3.4,5.5,5.4,11.1,5.4c4.1,0,8-0.4,11.9-1.7l2,10.5c-5.2,2.1-10.8,2.7-16.2,2.7c-15.2,0-23.8-8.3-23.8-22
			c0-10.1,6.5-23,22.4-23c14,0,19.9,10.3,19.9,22.1c0,2.6-0.4,4.9-0.6,6H524z M536.7,1849.1c0-2.5-1.1-7-6.1-7c-4.7,0-6.5,4.3-6.8,7
			H536.7z"/>
		<path d="M593.2,1820.4v12.3h9v11.6h-9v12.4c0,5.2,1.2,7.3,5,7.3c1.7,0,2.9-0.2,3.8-0.4v12c-1.8,0.6-5.4,1.1-9.4,1.1
			c-4.7,0-8.5-1.6-10.8-3.9c-2.6-2.6-4-6.9-4-13.5v-15.1h-5.4v-11.6h5.4v-8.8L593.2,1820.4z"/>
		<path d="M621.9,1859.8c0.5,3.4,5.5,5.4,11.1,5.4c4.1,0,8-0.4,11.9-1.7l2,10.5c-5.2,2.1-10.8,2.7-16.2,2.7
			c-15.2,0-23.8-8.3-23.8-22c0-10.1,6.5-23,22.4-23c14,0,19.9,10.3,19.9,22.1c0,2.6-0.4,4.9-0.6,6H621.9z M634.6,1849.1
			c0-2.5-1.1-7-6.1-7c-4.7,0-6.5,4.3-6.8,7H634.6z"/>
		<path d="M668,1832.7l3.4,6.3c1.1,2.1,2.2,4.2,3.2,6.2h0.3c1-2.3,1.8-4.4,2.8-6.5l2.9-6.1h17.1l-14,20.5l14.1,22.7h-17.9l-3.4-6.9
			c-1.1-2-2-4-2.8-6.1h-0.3c-1,2.2-1.9,4.2-2.7,6.1l-3.2,6.9h-17.3l14.3-22l-14.1-21.2H668z"/>
		<path d="M721.3,1820.4v12.3h9v11.6h-9v12.4c0,5.2,1.2,7.3,5,7.3c1.7,0,2.9-0.2,3.8-0.4v12c-1.8,0.6-5.4,1.1-9.4,1.1
			c-4.7,0-8.5-1.6-10.8-3.9c-2.6-2.6-4-6.9-4-13.5v-15.1h-5.4v-11.6h5.4v-8.8L721.3,1820.4z"/>
		<path d="M797.9,1832.7c-0.3,2.6-0.4,6.4-0.4,13.3v23.5c0,7.6-1.5,14.8-6.7,19.3c-5,4.2-11.6,5.4-18.3,5.4c-6,0-12-1.1-16.1-3.2
			l3-11.9c2.6,1.5,7.6,3.2,12.5,3.2c5.6,0,10-3.1,10-9.7v-1.9h-0.2c-2.6,3.3-6.5,4.8-10.8,4.8c-10.5,0-18.2-8.4-18.2-21
			c0-13.6,8.8-22.7,19.6-22.7c5.3,0,8.9,2,11.2,5.5h0.2l0.5-4.6H797.9z M781.7,1850.5c0-0.6-0.1-1.4-0.2-2c-0.7-3.1-2.7-4.9-5.6-4.9
			c-3.8,0-7,3.7-7,10.5c0,5.6,2.6,9.7,7,9.7c2.9,0,5-1.9,5.5-4.3c0.3-0.9,0.3-2.3,0.3-3.2V1850.5z"/>
		<path d="M851.4,1853.8c0,15.7-11.2,23-23.4,23c-12.9,0-22.9-8.3-22.9-22.3c0-13.7,9-22.8,23.8-22.8
			C842.5,1831.7,851.4,1840.8,851.4,1853.8z M821.5,1854.3c0,6.4,2.1,11.4,7,11.4c4.2,0,6.6-4.5,6.6-11.4c0-6-1.9-11.4-6.7-11.4
			C823.2,1842.9,821.5,1848.6,821.5,1854.3z"/>
		<path d="M872.2,1859.8c0.5,3.4,5.5,5.4,11.1,5.4c4.1,0,8-0.4,11.9-1.7l2,10.5c-5.2,2.1-10.8,2.7-16.2,2.7
			c-15.2,0-23.8-8.3-23.8-22c0-10.1,6.5-23,22.4-23c14,0,19.9,10.3,19.9,22.1c0,2.6-0.4,4.9-0.6,6H872.2z M885,1849.1
			c0-2.5-1.1-7-6.1-7c-4.7,0-6.5,4.3-6.8,7H885z"/>
		<path d="M907.1,1862.6c2.5,1.5,8.1,3.2,12,3.2c3.3,0,4.7-0.8,4.7-2.4c0-1.6-1-2.3-5.6-3.8c-9.5-3-12.7-8.2-12.6-13.2
			c0-8.6,7.3-14.8,18.6-14.8c5.4,0,10.1,1.1,12.9,2.5l-2.5,10.7c-2-1-6.1-2.4-9.6-2.4c-2.7,0-4.3,0.7-4.3,2.5c0,1.4,1.4,2.3,6.5,4
			c8.5,2.8,11.8,7.2,11.9,13.4c0,8.3-6.4,14.4-19.8,14.4c-6,0-11.3-1.2-14.8-3L907.1,1862.6z"/>
		<path d="M963.7,1813.5h15.8v23.7h0.2c1.5-1.8,3.1-3,5.1-4c1.8-1,4.3-1.5,6.6-1.5c9.7,0,15.1,6.9,15.1,19.1v25h-15.8v-23.3
			c0-5.1-1.7-8.2-5.6-8.2c-3,0-4.4,1.8-5.1,3.4c-0.4,0.7-0.4,1.8-0.4,2.5v25.5h-15.8V1813.5z"/>
		<path d="M1029.2,1859.8c0.5,3.4,5.5,5.4,11.1,5.4c4.1,0,8-0.4,11.9-1.7l2,10.5c-5.2,2.1-10.8,2.7-16.2,2.7
			c-15.2,0-23.8-8.3-23.8-22c0-10.1,6.5-23,22.4-23c14,0,19.9,10.3,19.9,22.1c0,2.6-0.4,4.9-0.6,6H1029.2z M1041.9,1849.1
			c0-2.5-1.1-7-6.1-7c-4.7,0-6.5,4.3-6.8,7H1041.9z"/>
		<path d="M1063.7,1847.3c0-6.8-0.2-11-0.4-14.6h13.5l0.5,7.8h0.4c2.3-6.6,7.8-8.8,11.5-8.8c1.4,0,2,0,3.2,0.3v14.8
			c-1.1-0.3-2.4-0.4-4-0.4c-4.7,0-7.8,1.9-8.6,5.4c-0.2,0.8-0.3,1.7-0.3,2.7v21.3h-15.8V1847.3z"/>
		<path d="M1111.2,1859.8c0.5,3.4,5.5,5.4,11.1,5.4c4.1,0,8-0.4,11.9-1.7l2,10.5c-5.2,2.1-10.8,2.7-16.2,2.7
			c-15.2,0-23.8-8.3-23.8-22c0-10.1,6.5-23,22.4-23c14,0,19.9,10.3,19.9,22.1c0,2.6-0.4,4.9-0.6,6H1111.2z M1123.9,1849.1
			c0-2.5-1.1-7-6.1-7c-4.7,0-6.5,4.3-6.8,7H1123.9z"/>
		<path d="M1144.7,1867.6c0-5.4,3.8-9.2,9-9.2c5.4,0,9,3.7,9,9.2c0,5.4-3.6,9.2-9,9.2C1148.5,1876.9,1144.7,1873,1144.7,1867.6z
			 M1174,1867.6c0-5.4,3.8-9.2,9-9.2c5.4,0,9,3.7,9,9.2c0,5.4-3.6,9.2-9,9.2C1177.8,1876.9,1174,1873,1174,1867.6z M1203.4,1867.6
			c0-5.4,3.8-9.2,9-9.2c5.4,0,9,3.7,9,9.2c0,5.4-3.6,9.2-9,9.2C1207.2,1876.9,1203.4,1873,1203.4,1867.6z"/>
	</g>
	<g>
		<path d="M15.7,1921.6c1.1-0.2,2.9-0.4,4.7-0.4c2.5,0,4.2,0.4,5.4,1.4c1,0.8,1.6,1.9,1.6,3.5c0,1.9-1.3,3.6-3.3,4.3v0.1
			c1.9,0.5,4.1,2,4.1,5c0,1.7-0.7,3-1.7,4c-1.4,1.3-3.6,1.8-6.8,1.8c-1.8,0-3.1-0.1-4-0.2V1921.6z M18.2,1929.7h2.3
			c2.7,0,4.3-1.4,4.3-3.3c0-2.3-1.8-3.2-4.3-3.2c-1.2,0-1.8,0.1-2.3,0.2V1929.7z M18.2,1939.2c0.5,0.1,1.2,0.1,2.1,0.1
			c2.6,0,5.1-1,5.1-3.8c0-2.7-2.3-3.8-5.1-3.8h-2.1V1939.2z"/>
		<path d="M31.5,1920.3h2.6v20.8h-2.6V1920.3z"/>
		<path d="M46.2,1941.1l-0.2-1.8h-0.1c-0.8,1.1-2.3,2.1-4.3,2.1c-2.9,0-4.3-2-4.3-4.1c0-3.4,3-5.3,8.5-5.3v-0.3
			c0-1.2-0.3-3.3-3.2-3.3c-1.3,0-2.7,0.4-3.7,1.1l-0.6-1.7c1.2-0.8,2.9-1.3,4.7-1.3c4.3,0,5.4,3,5.4,5.8v5.3c0,1.2,0.1,2.4,0.2,3.4
			H46.2z M45.9,1933.9c-2.8-0.1-6,0.4-6,3.2c0,1.7,1.1,2.5,2.4,2.5c1.8,0,3-1.2,3.4-2.4c0.1-0.3,0.1-0.6,0.1-0.8V1933.9z"/>
		<path d="M62.6,1940.6c-0.7,0.4-2.2,0.8-4.1,0.8c-4.3,0-7.1-2.9-7.1-7.2c0-4.4,3-7.5,7.6-7.5c1.5,0,2.9,0.4,3.6,0.7l-0.6,2
			c-0.6-0.4-1.6-0.7-3-0.7c-3.3,0-5,2.4-5,5.4c0,3.3,2.1,5.3,4.9,5.3c1.5,0,2.4-0.4,3.2-0.7L62.6,1940.6z"/>
		<path d="M68.2,1933.4L68.2,1933.4c0.4-0.5,0.9-1.1,1.3-1.6l4.2-4.9h3.1l-5.5,5.8l6.2,8.3h-3.1l-4.9-6.8l-1.3,1.5v5.3h-2.5v-20.8
			h2.5V1933.4z"/>
	</g>
</g>
<g>
	<g>
		<line x1="158" y1="2155.4" x2="1182.4" y2="2155.4"/>
		<rect x="158" y="2154.8" width="1024.5" height="1.2"/>
	</g>
	<g>
		<path d="M24.5,2082.7c3.6,2.1,8.9,3.8,14.6,3.8c4.1,0,7.9-1.6,7.9-5.1c0-2.9-2.6-4.6-7.7-7.2c-5.7-3.1-12.5-7.6-12.5-15.9
			c0-12.6,11.1-20,24.8-20c7.8,0,12,1.5,14.8,2.9l-4.7,12.5c-1.9-1-6.3-2.6-11.3-2.5c-5.3,0-7.8,2.1-7.8,4.7c0,2.8,4,4.7,8.4,7.3
			c7.1,3.7,11.9,8.5,11.9,15.5c0,14.4-12.2,20.6-25.3,20.6c-9.2,0-15.2-2.3-18.1-4.2L24.5,2082.7z"/>
		<path d="M114.8,2072c0,16.8-11.4,27.4-26.5,27.4c-11.1,0-19-6.8-19-17.9c0-15.2,10.7-27.2,26.6-27.2
			C107.5,2054.2,114.8,2061.8,114.8,2072z M84.8,2081.2c0,4.2,1.9,6.8,5.5,6.8c6.1,0,9-9.7,9-15.9c0-3.6-1.5-6.6-5.4-6.6
			C87.4,2065.6,84.8,2075.9,84.8,2081.2z"/>
		<path d="M117.9,2098.4l5.3-28.5c1.1-5.7,1.8-10.7,2.3-14.7h12.8l-0.6,6.6h0.1c4-5.4,9.1-7.6,14.6-7.6c7,0,9.9,4.5,10.3,7.6
			c3.9-5.3,9.3-7.6,14.5-7.6c7.4,0,10.5,4.7,10.5,11.7c0,1.8-0.4,5.4-0.7,7.5l-4.7,25h-14.5l4.2-23.1c0.4-1.7,0.6-3.4,0.6-5
			c0-2.4-1.1-4.1-3.3-4.1c-3.8,0-7,5.4-8.6,13.8l-3.4,18.4h-14.4l4.3-23.1c0.3-1.7,0.5-3.3,0.5-4.7c0-2.6-0.9-4.4-3.1-4.4
			c-3.8,0-7.4,5.5-8.9,13.8l-3.3,18.4H117.9z"/>
		<path d="M230.1,2095.9c-5.8,2.8-12.6,3.3-16.9,3.3c-12.6,0-19.6-6.6-19.6-18.6c0-13.2,9.5-26.4,25.8-26.4c9,0,16,4.9,16,13.8
			c0,10.8-9.8,15.2-27.7,14.7c0.2,1,0.7,2.1,1.6,2.9c1.7,1.4,4.3,2.2,7.7,2.2c4.4,0,8.5-0.9,12.3-2.6L230.1,2095.9z M217.6,2065
			c-5.4,0-8,4-8.4,6.8c9.1,0.1,12.3-1.2,12.3-4C221.4,2066.3,220,2065,217.6,2065z"/>
		<path d="M256.2,2085.4c2.6,1.2,7.6,3.2,12.1,3.1c3,0,4.2-1.1,4.2-2.5c0-1.6-1.3-2.8-5.1-4.5c-4.9-2.4-9.7-6-9.7-11.7
			c0-9.6,8.4-15.5,20.4-15.5c5.5,0,9.7,1.1,11.9,2.3l-3.4,10.4c-1.9-0.8-5.1-1.8-9.1-1.8c-2.8,0-4.7,0.9-4.7,2.6
			c0,1.2,1.6,2.5,4.9,4c4.7,2.2,10.4,5.4,10.4,11.9c0,10.3-8.9,15.6-21.3,15.6c-5.8,0-11.4-1.5-14.2-3.5L256.2,2085.4z"/>
		<path d="M320.5,2098.4c0.1-2.5,0.3-5,0.4-7.5h-0.2c-3.7,6.4-9,8.4-13.6,8.4c-7.8,0-13.3-6-13.3-15.4c0-14.3,9-29.8,31.3-29.8
			c5.6,0,11.5,1.1,15.4,2.4l-4.6,22.7c-0.9,4.7-1.8,13.5-1.7,19.1H320.5z M323.7,2065.7c-1-0.2-2-0.3-2.7-0.3
			c-7,0-11.6,9.4-11.6,15.7c0,4,1.7,6.1,4.3,6.1c2.7,0,6.3-2.7,8.3-12.9L323.7,2065.7z"/>
		<path d="M342.7,2098.4l5.3-28.5c1.1-5.7,1.8-10.7,2.3-14.7h12.8l-0.6,6.6h0.1c4-5.4,9.1-7.6,14.6-7.6c7,0,9.9,4.5,10.3,7.6
			c3.9-5.3,9.3-7.6,14.5-7.6c7.4,0,10.5,4.7,10.5,11.7c0,1.8-0.4,5.4-0.7,7.5l-4.7,25h-14.5l4.2-23.1c0.4-1.7,0.6-3.4,0.6-5
			c0-2.4-1.1-4.1-3.3-4.1c-3.8,0-7,5.4-8.6,13.8l-3.4,18.4h-14.4l4.3-23.1c0.3-1.7,0.5-3.3,0.5-4.7c0-2.6-0.9-4.4-3.1-4.4
			c-3.8,0-7.4,5.5-8.9,13.8l-3.3,18.4H342.7z"/>
		<path d="M413.4,2115.8l8.3-43.3c0.9-5.1,2-12.9,2.5-17.3h13.3l-0.6,5.5h0.2c3.3-4.3,8.2-6.5,13.1-6.5c9.4,0,14.2,7.5,14.2,16.7
			c0,14.9-9.7,28.5-24.9,28.5c-3,0-6.1-0.8-7.5-1.8h-0.2l-3.5,18.2H413.4z M434.1,2086.2c1.1,1.1,2.6,1.9,4.7,1.9
			c5.6,0,9.8-8.8,9.8-16.1c0-2.9-1.3-5.7-4.5-5.7c-4.3,0-7.6,4.7-8.8,11.7L434.1,2086.2z"/>
		<path d="M467.5,2098.4l11.9-62.3h14.9l-11.9,62.3H467.5z"/>
		<path d="M530.4,2095.9c-5.8,2.8-12.6,3.3-16.9,3.3c-12.6,0-19.6-6.6-19.6-18.6c0-13.2,9.5-26.4,25.8-26.4c9,0,16,4.9,16,13.8
			c0,10.8-9.8,15.2-27.7,14.7c0.2,1,0.7,2.1,1.6,2.9c1.7,1.4,4.3,2.2,7.7,2.2c4.4,0,8.5-0.9,12.3-2.6L530.4,2095.9z M517.8,2065
			c-5.4,0-8,4-8.4,6.8c9.1,0.1,12.3-1.2,12.3-4C521.7,2066.3,520.3,2065,517.8,2065z"/>
		<path d="M580.9,2042.9l-2.3,12.3h8.8l-2.2,11.3h-8.8l-2.5,11.9c-0.3,1.4-0.6,3.7-0.6,4.9c0,1.8,0.8,3.3,3.5,3.3
			c1.1,0,2.3,0,3.5-0.1l-1.9,11.7c-1.8,0.7-5.4,1.1-8.3,1.1c-8.2,0-12.2-3.9-12.2-9.7c0-2.4,0.3-4.7,0.9-8l3-15.2h-5.3l2.2-11.3h5.3
			l1.7-8.8L580.9,2042.9z"/>
		<path d="M624,2095.9c-5.8,2.8-12.6,3.3-16.9,3.3c-12.6,0-19.6-6.6-19.6-18.6c0-13.2,9.5-26.4,25.8-26.4c9,0,16,4.9,16,13.8
			c0,10.8-9.8,15.2-27.7,14.7c0.2,1,0.7,2.1,1.6,2.9c1.7,1.4,4.3,2.2,7.7,2.2c4.4,0,8.5-0.9,12.3-2.6L624,2095.9z M611.4,2065
			c-5.4,0-8,4-8.4,6.8c9.1,0.1,12.3-1.2,12.3-4C615.3,2066.3,613.9,2065,611.4,2065z"/>
		<path d="M650.9,2055.2l1.8,5.2c1.5,3.8,2.2,6,2.7,7.5h0.3c1.6-2.3,2.8-4.5,4.6-7.1l3.4-5.5h17.1l-18.2,21l9.9,22.2h-16.4l-2-5.7
			c-1.1-3.1-1.9-5.4-2.6-7.9h-0.3c-1.1,2-2.4,4.3-4.3,7.6l-3.7,6.1h-17.2l18.6-22.4l-10.2-20.8H650.9z"/>
		<path d="M706,2042.9l-2.3,12.3h8.8l-2.2,11.3h-8.8l-2.5,11.9c-0.3,1.4-0.6,3.7-0.6,4.9c0,1.8,0.8,3.3,3.5,3.3c1.1,0,2.3,0,3.5-0.1
			l-1.9,11.7c-1.8,0.7-5.4,1.1-8.3,1.1c-8.2,0-12.2-3.9-12.2-9.7c0-2.4,0.3-4.7,0.9-8l3-15.2h-5.3l2.2-11.3h5.3l1.7-8.8L706,2042.9z
			"/>
		<path d="M731.5,2102.8c2.4,1.2,8,2.1,11.3,2.1c5.9,0,10.2-2.5,11.7-9.7l0.4-2.5h-0.2c-3.2,3.6-6.5,5.2-11.2,5.2
			c-8.6,0-14.1-6.8-14.1-15.5c-0.1-14,9.8-28.1,29.5-28.1c6.6,0,11.9,1,16.9,3l-6.4,35.6c-1.4,7.4-3.9,14.8-9.3,19.1
			c-4.8,3.8-11.2,4.9-17.4,4.9c-6,0-11.5-1.1-14.5-2.6L731.5,2102.8z M759.7,2066.1c-0.8-0.4-2.3-0.5-3.5-0.5c-6.3,0-11,7.5-11,14.6
			c0,4.1,2,6.3,4.8,6.3c3.2,0,6.4-3.2,7.6-10L759.7,2066.1z"/>
		<path d="M825.3,2072c0,16.8-11.4,27.4-26.5,27.4c-11.1,0-19-6.8-19-17.9c0-15.2,10.7-27.2,26.6-27.2
			C818,2054.2,825.3,2061.8,825.3,2072z M795.3,2081.2c0,4.2,1.9,6.8,5.5,6.8c6.1,0,9-9.7,9-15.9c0-3.6-1.5-6.6-5.4-6.6
			C797.9,2065.6,795.3,2075.9,795.3,2081.2z"/>
		<path d="M867.2,2095.9c-5.8,2.8-12.6,3.3-16.9,3.3c-12.6,0-19.6-6.6-19.6-18.6c0-13.2,9.5-26.4,25.8-26.4c9,0,16,4.9,16,13.8
			c0,10.8-9.8,15.2-27.7,14.7c0.2,1,0.7,2.1,1.6,2.9c1.7,1.4,4.3,2.2,7.7,2.2c4.4,0,8.5-0.9,12.3-2.6L867.2,2095.9z M854.7,2065
			c-5.4,0-8,4-8.4,6.8c9.1,0.1,12.3-1.2,12.3-4C858.5,2066.3,857.1,2065,854.7,2065z"/>
		<path d="M877.1,2085.4c2.6,1.2,7.6,3.2,12.1,3.1c3,0,4.2-1.1,4.2-2.5c0-1.6-1.3-2.8-5.1-4.5c-4.9-2.4-9.7-6-9.7-11.7
			c0-9.6,8.4-15.5,20.4-15.5c5.5,0,9.7,1.1,11.9,2.3l-3.4,10.4c-1.9-0.8-5.1-1.8-9.1-1.8c-2.8,0-4.7,0.9-4.7,2.6
			c0,1.2,1.6,2.5,4.9,4c4.7,2.2,10.4,5.4,10.4,11.9c0,10.3-8.9,15.6-21.3,15.6c-5.8,0-11.4-1.5-14.2-3.5L877.1,2085.4z"/>
		<path d="M929.4,2098.4l11.8-62.3h15l-4.6,23.8h0.2c3.5-3.3,7.7-5.6,13-5.6c7.6,0,11,4.7,11,11.8c0,1.9-0.4,5.4-0.9,7.9l-4.6,24.5
			h-15l4.4-23.1c0.4-1.8,0.5-3.5,0.5-5.1c0-2.4-0.9-4-3.3-4c-4,0-7.3,4.9-8.9,13.3l-3.6,19H929.4z"/>
		<path d="M1018.2,2095.9c-5.8,2.8-12.6,3.3-16.9,3.3c-12.6,0-19.6-6.6-19.6-18.6c0-13.2,9.5-26.4,25.8-26.4c9,0,16,4.9,16,13.8
			c0,10.8-9.8,15.2-27.7,14.7c0.2,1,0.7,2.1,1.6,2.9c1.7,1.4,4.3,2.2,7.7,2.2c4.4,0,8.5-0.9,12.3-2.6L1018.2,2095.9z M1005.6,2065
			c-5.4,0-8,4-8.4,6.8c9.1,0.1,12.3-1.2,12.3-4C1009.5,2066.3,1008.1,2065,1005.6,2065z"/>
		<path d="M1025.8,2098.4l4.7-24.9c1.2-6.8,1.8-14.8,2.2-18.4h12.9c-0.2,2.9-0.4,5.7-0.6,8.6h0.3c3.2-5.6,8-9.6,14-9.6
			c0.9,0,1.7,0,2.5,0.1l-3,14.5c-0.5,0-1.2,0-1.9,0c-8.9,0-11.9,6.9-13.3,14.8l-2.7,14.8H1025.8z"/>
		<path d="M1098.5,2095.9c-5.8,2.8-12.6,3.3-16.9,3.3c-12.6,0-19.6-6.6-19.6-18.6c0-13.2,9.5-26.4,25.8-26.4c9,0,16,4.9,16,13.8
			c0,10.8-9.8,15.2-27.7,14.7c0.2,1,0.7,2.1,1.6,2.9c1.7,1.4,4.3,2.2,7.7,2.2c4.4,0,8.5-0.9,12.3-2.6L1098.5,2095.9z M1086,2065
			c-5.4,0-8,4-8.4,6.8c9.1,0.1,12.3-1.2,12.3-4C1089.8,2066.3,1088.4,2065,1086,2065z"/>
		<path d="M1107.6,2091c0-5.5,4-10.3,9.8-10.3c4.9,0,8.3,3.4,8.3,8.5c0,5.9-4.2,9.9-10,9.9C1110.8,2099.2,1107.6,2095.8,1107.6,2091
			z M1136.9,2091c0-5.5,4-10.3,9.8-10.3c4.9,0,8.3,3.4,8.3,8.5c0,5.9-4.2,9.9-10,9.9C1140.2,2099.2,1136.9,2095.8,1136.9,2091z
			 M1166.2,2091c0-5.5,4-10.3,9.8-10.3c4.9,0,8.3,3.4,8.3,8.5c0,5.9-4.2,9.9-10,9.9C1169.5,2099.2,1166.2,2095.8,1166.2,2091z"/>
	</g>
	<g>
		<path d="M15.7,2144.1c1.1-0.2,2.9-0.4,4.7-0.4c2.5,0,4.2,0.4,5.4,1.4c1,0.8,1.6,1.9,1.6,3.5c0,1.9-1.3,3.6-3.3,4.3v0.1
			c1.9,0.5,4.1,2,4.1,5c0,1.7-0.7,3-1.7,4c-1.4,1.3-3.6,1.8-6.8,1.8c-1.8,0-3.1-0.1-4-0.2V2144.1z M18.2,2152.2h2.3
			c2.7,0,4.3-1.4,4.3-3.3c0-2.3-1.8-3.2-4.3-3.2c-1.2,0-1.8,0.1-2.3,0.2V2152.2z M18.2,2161.7c0.5,0.1,1.2,0.1,2.1,0.1
			c2.6,0,5.1-1,5.1-3.8c0-2.7-2.3-3.8-5.1-3.8h-2.1V2161.7z"/>
		<path d="M31.5,2142.8h2.6v20.8h-2.6V2142.8z"/>
		<path d="M46.2,2163.6l-0.2-1.8h-0.1c-0.8,1.1-2.3,2.1-4.3,2.1c-2.9,0-4.3-2-4.3-4.1c0-3.4,3-5.3,8.5-5.3v-0.3
			c0-1.2-0.3-3.3-3.2-3.3c-1.3,0-2.7,0.4-3.7,1.1l-0.6-1.7c1.2-0.8,2.9-1.3,4.7-1.3c4.3,0,5.4,3,5.4,5.8v5.3c0,1.2,0.1,2.4,0.2,3.4
			H46.2z M45.9,2156.4c-2.8-0.1-6,0.4-6,3.2c0,1.7,1.1,2.5,2.4,2.5c1.8,0,3-1.2,3.4-2.4c0.1-0.3,0.1-0.6,0.1-0.8V2156.4z"/>
		<path d="M62.6,2163.1c-0.7,0.4-2.2,0.8-4.1,0.8c-4.3,0-7.1-2.9-7.1-7.2c0-4.4,3-7.5,7.6-7.5c1.5,0,2.9,0.4,3.6,0.7l-0.6,2
			c-0.6-0.4-1.6-0.7-3-0.7c-3.3,0-5,2.4-5,5.4c0,3.3,2.1,5.3,4.9,5.3c1.5,0,2.4-0.4,3.2-0.7L62.6,2163.1z"/>
		<path d="M68.2,2155.9L68.2,2155.9c0.4-0.5,0.9-1.1,1.3-1.6l4.2-4.9h3.1l-5.5,5.8l6.2,8.3h-3.1l-4.9-6.8l-1.3,1.5v5.3h-2.5v-20.8
			h2.5V2155.9z"/>
		<path d="M88.2,2143.9v19.7h-2.5v-19.7H88.2z"/>
		<path d="M96.2,2145.3v4.1h3.7v2h-3.7v7.6c0,1.8,0.5,2.8,1.9,2.8c0.7,0,1.2-0.1,1.5-0.2l0.1,1.9c-0.5,0.2-1.3,0.4-2.3,0.4
			c-1.2,0-2.2-0.4-2.8-1.1c-0.7-0.8-1-2-1-3.7v-7.7h-2.2v-2h2.2v-3.4L96.2,2145.3z"/>
		<path d="M110.6,2163.6l-0.2-1.8h-0.1c-0.8,1.1-2.3,2.1-4.3,2.1c-2.9,0-4.3-2-4.3-4.1c0-3.4,3-5.3,8.5-5.3v-0.3
			c0-1.2-0.3-3.3-3.2-3.3c-1.3,0-2.7,0.4-3.7,1.1l-0.6-1.7c1.2-0.8,2.9-1.3,4.7-1.3c4.3,0,5.4,3,5.4,5.8v5.3c0,1.2,0.1,2.4,0.2,3.4
			H110.6z M110.2,2156.4c-2.8-0.1-6,0.4-6,3.2c0,1.7,1.1,2.5,2.4,2.5c1.8,0,3-1.2,3.4-2.4c0.1-0.3,0.1-0.6,0.1-0.8V2156.4z"/>
		<path d="M116.9,2142.8h2.6v20.8h-2.6V2142.8z"/>
		<path d="M126.7,2145.4c0,0.9-0.6,1.6-1.6,1.6c-0.9,0-1.6-0.7-1.6-1.6c0-0.9,0.7-1.6,1.6-1.6
			C126.1,2143.8,126.7,2144.5,126.7,2145.4z M123.8,2163.6v-14.2h2.6v14.2H123.8z"/>
		<path d="M140.8,2163.1c-0.7,0.4-2.2,0.8-4.1,0.8c-4.3,0-7.1-2.9-7.1-7.2c0-4.4,3-7.5,7.6-7.5c1.5,0,2.9,0.4,3.6,0.7l-0.6,2
			c-0.6-0.4-1.6-0.7-3-0.7c-3.3,0-5,2.4-5,5.4c0,3.3,2.1,5.3,4.9,5.3c1.5,0,2.4-0.4,3.2-0.7L140.8,2163.1z"/>
	</g>
</g>
</svg>
